<svg height="250.134375pt" stroke-linejoin="round" viewBox="0 0 516.583009 250.134375" width="516.583009pt" xmlns="http://www.w3.org/2000/svg" xmlns:xlink="http://www.w3.org/1999/xlink"><defs stroke-linejoin="round"><clipPath id="a" stroke-linejoin="round"><path d="m53.35 22.318125h446.4v190.26h-446.4z"/></clipPath><path id="b" d="m0 0v3.5" stroke="#000" stroke-linejoin="round" stroke-width=".8"/><path id="c" d="m31.78125 66.40625q-7.609375 0-11.453125-7.5-3.828125-7.484375-3.828125-22.53125 0-14.984375 3.828125-22.484375 3.84375-7.5 11.453125-7.5 7.671875 0 11.5 7.5 3.84375 7.5 3.84375 22.484375 0 15.046875-3.84375 22.53125-3.828125 7.5-11.5 7.5zm0 7.8125q12.265625 0 18.734375-9.703125 6.46875-9.6875 6.46875-28.140625 0-18.40625-6.46875-28.109375-6.46875-9.6875-18.734375-9.6875-12.25 0-18.71875 9.6875-6.46875 9.703125-6.46875 28.109375 0 18.453125 6.46875 28.140625 6.46875 9.703125 18.71875 9.703125z" stroke-linejoin="round"/><path id="d" d="m19.1875 8.296875h34.421875v-8.296875h-46.28125v8.296875q5.609375 5.8125 15.296875 15.59375 9.703125 9.796875 12.1875 12.640625 4.734375 5.3125 6.609375 9 1.890625 3.6875 1.890625 7.25 0 5.8125-4.078125 9.46875-4.078125 3.671875-10.625 3.671875-4.640625 0-9.796875-1.609375-5.140625-1.609375-11-4.890625v9.96875q5.953125 2.390625 11.125 3.609375 5.1875 1.21875 9.484375 1.21875 11.328125 0 18.0625-5.671875 6.734375-5.65625 6.734375-15.125 0-4.5-1.6875-8.53125-1.671875-4.015625-6.125-9.484375-1.21875-1.421875-7.765625-8.1875-6.53125-6.765625-18.453125-18.921875z" stroke-linejoin="round"/><path id="e" d="m37.796875 64.3125-24.90625-38.921875h24.90625zm-2.59375 8.59375h12.40625v-47.515625h10.40625v-8.203125h-10.40625v-17.1875h-9.8125v17.1875h-32.90625v9.515625z" stroke-linejoin="round"/><path id="f" d="m33.015625 40.375q-6.640625 0-10.53125-4.546875-3.875-4.53125-3.875-12.4375 0-7.859375 3.875-12.4375 3.890625-4.5625 10.53125-4.5625 6.640625 0 10.515625 4.5625 3.875 4.578125 3.875 12.4375 0 7.90625-3.875 12.4375-3.875 4.546875-10.515625 4.546875zm19.578125 30.921875v-8.984375q-3.71875 1.75-7.5 2.671875-3.78125.9375-7.5.9375-9.765625 0-14.921875-6.59375-5.140625-6.59375-5.875-19.921875 2.875 4.25 7.21875 6.515625 4.359375 2.265625 9.578125 2.265625 10.984375 0 17.359375-6.671875 6.375-6.65625 6.375-18.125 0-11.234375-6.640625-18.03125-6.640625-6.78125-17.671875-6.78125-12.65625 0-19.34375 9.6875-6.6875 9.703125-6.6875 28.109375 0 17.28125 8.203125 27.5625 8.203125 10.28125 22.015625 10.28125 3.71875 0 7.5-.734375 3.78125-.734375 7.890625-2.1875z" stroke-linejoin="round"/><path id="g" d="m31.78125 34.625q-7.03125 0-11.0625-3.765625-4.015625-3.765625-4.015625-10.34375 0-6.59375 4.015625-10.359375 4.03125-3.765625 11.0625-3.765625 7.03125 0 11.078125 3.78125 4.0625 3.796875 4.0625 10.34375 0 6.578125-4.03125 10.34375-4.015625 3.765625-11.109375 3.765625zm-9.859375 4.1875q-6.34375 1.5625-9.890625 5.90625-3.53125 4.359375-3.53125 10.609375 0 8.734375 6.21875 13.8125 6.234375 5.078125 17.0625 5.078125 10.890625 0 17.09375-5.078125 6.203125-5.078125 6.203125-13.8125 0-6.25-3.546875-10.609375-3.53125-4.34375-9.828125-5.90625 7.125-1.65625 11.09375-6.5 3.984375-4.828125 3.984375-11.796875 0-10.609375-6.46875-16.28125-6.46875-5.65625-18.53125-5.65625-12.046875 0-18.53125 5.65625-6.46875 5.671875-6.46875 16.28125 0 6.96875 4 11.796875 4.015625 4.84375 11.140625 6.5zm-3.609375 15.578125q0-5.65625 3.53125-8.828125 3.546875-3.171875 9.9375-3.171875 6.359375 0 9.9375 3.171875 3.59375 3.171875 3.59375 8.828125 0 5.671875-3.59375 8.84375-3.578125 3.171875-9.9375 3.171875-6.390625 0-9.9375-3.171875-3.53125-3.171875-3.53125-8.84375z" stroke-linejoin="round"/><path id="h" d="m12.40625 8.296875h16.109375v55.625l-17.53125-3.515625v8.984375l17.4375 3.515625h9.859375v-64.609375h16.109375v-8.296875h-41.984375z" stroke-linejoin="round"/><path id="i" d="m18.3125 70.21875v-15.53125h18.5v-6.984375h-18.5v-29.6875q0-6.6875 1.828125-8.59375 1.828125-1.90625 7.453125-1.90625h9.21875v-7.515625h-9.21875q-10.40625 0-14.359375 3.875-3.953125 3.890625-3.953125 14.140625v29.6875h-6.59375v6.984375h6.59375v15.53125z" stroke-linejoin="round"/><path id="j" d="m9.421875 54.6875h8.984375v-54.6875h-8.984375zm0 21.296875h8.984375v-11.390625h-8.984375z" stroke-linejoin="round"/><path id="k" d="m52 44.1875q3.375 6.0625 8.0625 8.9375 4.6875 2.875 11.03125 2.875 8.546875 0 13.1875-5.984375 4.640625-5.96875 4.640625-17v-33.015625h-9.03125v32.71875q0 7.859375-2.796875 11.65625-2.78125 3.8125-8.484375 3.8125-6.984375 0-11.046875-4.640625-4.046875-4.625-4.046875-12.640625v-30.90625h-9.03125v32.71875q0 7.90625-2.78125 11.6875-2.78125 3.78125-8.59375 3.78125-6.890625 0-10.953125-4.65625-4.046875-4.65625-4.046875-12.625v-30.90625h-9.03125v54.6875h9.03125v-8.5q3.078125 5.03125 7.375 7.421875 4.296875 2.390625 10.203125 2.390625 5.96875 0 10.140625-3.03125 4.171875-3.015625 6.171875-8.78125z" stroke-linejoin="round"/><path id="l" d="m56.203125 29.59375v-4.390625h-41.3125q.59375-9.28125 5.59375-14.140625 5-4.859375 13.9375-4.859375 5.171875 0 10.03125 1.265625 4.859375 1.265625 9.65625 3.8125v-8.5q-4.84375-2.046875-9.921875-3.125-5.078125-1.078125-10.296875-1.078125-13.09375 0-20.734375 7.609375-7.640625 7.625-7.640625 20.625 0 13.421875 7.25 21.296875 7.25 7.890625 19.5625 7.890625 11.03125 0 17.453125-7.109375 6.421875-7.09375 6.421875-19.296875zm-8.984375 2.640625q-.09375 7.359375-4.125 11.75-4.03125 4.40625-10.671875 4.40625-7.515625 0-12.03125-4.25-4.515625-4.25-5.203125-11.96875z" stroke-linejoin="round"/><path id="m" d="m30.609375 48.390625q-7.21875 0-11.421875-5.640625-4.203125-5.640625-4.203125-15.453125 0-9.8125 4.171875-15.453125 4.1875-5.640625 11.453125-5.640625 7.1875 0 11.375 5.65625 4.203125 5.671875 4.203125 15.4375 0 9.71875-4.203125 15.40625-4.1875 5.6875-11.375 5.6875zm0 7.609375q11.71875 0 18.40625-7.625 6.703125-7.609375 6.703125-21.078125 0-13.421875-6.703125-21.078125-6.6875-7.640625-18.40625-7.640625-11.765625 0-18.4375 7.640625-6.65625 7.65625-6.65625 21.078125 0 13.46875 6.65625 21.078125 6.671875 7.625 18.4375 7.625z" stroke-linejoin="round"/><path id="n" d="m48.78125 52.59375v-8.40625q-3.8125 2.109375-7.640625 3.15625-3.828125 1.046875-7.734375 1.046875-8.75 0-13.59375-5.546875-4.828125-5.53125-4.828125-15.546875 0-10.015625 4.828125-15.5625 4.84375-5.53125 13.59375-5.53125 3.90625 0 7.734375 1.046875 3.828125 1.046875 7.640625 3.15625v-8.3125q-3.765625-1.75-7.796875-2.625-4.015625-.890625-8.5625-.890625-12.359375 0-19.640625 7.765625-7.265625 7.765625-7.265625 20.953125 0 13.375 7.34375 21.03125 7.359375 7.671875 20.15625 7.671875 4.140625 0 8.09375-.859375 3.953125-.84375 7.671875-2.546875z" stroke-linejoin="round"/><path id="o" d="m18.109375 8.203125v-29h-9.03125v75.484375h9.03125v-8.296875q2.84375 4.875 7.15625 7.234375 4.328125 2.375 10.328125 2.375 9.96875 0 16.1875-7.90625 6.234375-7.90625 6.234375-20.796875 0-12.890625-6.234375-20.8125-6.21875-7.90625-16.1875-7.90625-6 0-10.328125 2.375-4.3125 2.375-7.15625 7.25zm30.578125 19.09375q0 9.90625-4.078125 15.546875-4.078125 5.640625-11.203125 5.640625-7.140625 0-11.21875-5.640625-4.078125-5.640625-4.078125-15.546875 0-9.90625 4.078125-15.546875 4.078125-5.640625 11.21875-5.640625 7.125 0 11.203125 5.640625 4.078125 5.640625 4.078125 15.546875z" stroke-linejoin="round"/><path id="p" d="m8.5 21.578125v33.109375h8.984375v-32.765625q0-7.765625 3.015625-11.65625 3.03125-3.875 9.09375-3.875 7.265625 0 11.484375 4.640625 4.234375 4.640625 4.234375 12.65625v31h8.984375v-54.6875h-8.984375v8.40625q-3.265625-4.984375-7.59375-7.40625-4.3125-2.421875-10.03125-2.421875-9.421875 0-14.3125 5.859375-4.875 5.859375-4.875 17.140625z" stroke-linejoin="round"/><path id="q" d="m4.203125 54.6875h8.984375l11.234375-42.671875 11.171875 42.671875h10.59375l11.234375-42.671875 11.1875 42.671875h8.984375l-14.3125-54.6875h-10.59375l-11.765625 44.828125-11.8125-44.828125h-10.609375z" stroke-linejoin="round"/><path id="r" d="m54.890625 33.015625v-33.015625h-8.984375v32.71875q0 7.765625-3.03125 11.609375-3.03125 3.859375-9.078125 3.859375-7.28125 0-11.484375-4.640625-4.203125-4.625-4.203125-12.640625v-30.90625h-9.03125v75.984375h9.03125v-29.796875q3.234375 4.9375 7.59375 7.375 4.375 2.4375 10.09375 2.4375 9.421875 0 14.25-5.828125 4.84375-5.828125 4.84375-17.15625z" stroke-linejoin="round"/><path id="s" d="m19.671875 64.796875v-27.390625h12.40625q6.890625 0 10.640625 3.5625 3.765625 3.5625 3.765625 10.15625 0 6.546875-3.765625 10.109375-3.75 3.5625-10.640625 3.5625zm-9.859375 8.109375h22.265625q12.265625 0 18.53125-5.546875 6.28125-5.546875 6.28125-16.234375 0-10.796875-6.28125-16.3125-6.265625-5.515625-18.53125-5.515625h-12.40625v-29.296875h-9.859375z" stroke-linejoin="round"/><path id="t" d="m9.8125 72.90625h14.703125l18.59375-49.609375 18.703125 49.609375h14.703125v-72.90625h-9.625v64.015625l-18.796875-50h-9.90625l-18.796875 50v-64.015625h-9.578125z" stroke-linejoin="round"/><path id="u" d="m34.28125 27.484375q-10.890625 0-15.09375-2.484375-4.203125-2.484375-4.203125-8.5 0-4.78125 3.15625-7.59375 3.15625-2.796875 8.5625-2.796875 7.484375 0 12 5.296875 4.515625 5.296875 4.515625 14.078125v2zm17.921875 3.71875v-31.203125h-8.984375v8.296875q-3.078125-4.96875-7.671875-7.34375-4.59375-2.375-11.234375-2.375-8.390625 0-13.359375 4.71875-4.953125 4.71875-4.953125 12.625 0 9.21875 6.171875 13.90625 6.1875 4.6875 18.4375 4.6875h12.609375v.890625q0 6.203125-4.078125 9.59375-4.078125 3.390625-11.453125 3.390625-4.6875 0-9.140625-1.125-4.4375-1.125-8.53125-3.375v8.3125q4.921875 1.90625 9.5625 2.84375 4.640625.953125 9.03125.953125 11.875 0 17.734375-6.15625 5.859375-6.140625 5.859375-18.640625z" stroke-linejoin="round"/><path id="v" d="m41.109375 46.296875q-1.515625.875-3.296875 1.28125-1.78125.421875-3.921875.421875-7.625 0-11.703125-4.953125-4.078125-4.953125-4.078125-14.234375v-28.8125h-9.03125v54.6875h9.03125v-8.5q2.84375 4.984375 7.375 7.390625 4.546875 2.421875 11.046875 2.421875.921875 0 2.046875-.125 1.125-.109375 2.484375-.359375z" stroke-linejoin="round"/><path id="w" d="m54.890625 54.6875-19.78125-26.609375 20.796875-28.078125h-10.59375l-15.921875 21.484375-15.90625-21.484375h-10.609375l21.25 28.609375-19.4375 26.078125h10.59375l14.5-19.484375 14.5 19.484375z" stroke-linejoin="round"/><path id="x" d="m0 0h-3.5" stroke="#000" stroke-linejoin="round" stroke-width=".8"/><path id="y" d="m40.578125 39.3125q7.078125-1.515625 11.046875-6.3125 3.984375-4.78125 3.984375-11.8125 0-10.78125-7.421875-16.703125-7.421875-5.90625-21.09375-5.90625-4.578125 0-9.4375.90625-4.859375.90625-10.03125 2.71875v9.515625q4.09375-2.390625 8.96875-3.609375 4.890625-1.21875 10.21875-1.21875 9.265625 0 14.125 3.65625 4.859375 3.65625 4.859375 10.640625 0 6.453125-4.515625 10.078125-4.515625 3.640625-12.5625 3.640625h-8.5v8.109375h8.890625q7.265625 0 11.125 2.90625 3.859375 2.90625 3.859375 8.375 0 5.609375-3.984375 8.609375-3.96875 3.015625-11.390625 3.015625-4.0625 0-8.703125-.890625-4.640625-.875-10.203125-2.71875v8.78125q5.625 1.5625 10.53125 2.34375 4.90625.78125 9.25.78125 11.234375 0 17.765625-5.109375 6.546875-5.09375 6.546875-13.78125 0-6.0625-3.46875-10.234375-3.46875-4.171875-9.859375-5.78125z" stroke-linejoin="round"/><path id="z" d="m10.796875 72.90625h38.71875v-8.3125h-29.6875v-17.859375q2.140625.734375 4.28125 1.09375 2.15625.359375 4.3125.359375 12.203125 0 19.328125-6.6875 7.140625-6.6875 7.140625-18.109375 0-11.765625-7.328125-18.296875-7.328125-6.515625-20.65625-6.515625-4.59375 0-9.359375.78125-4.75.78125-9.828125 2.34375v9.921875q4.390625-2.390625 9.078125-3.5625 4.6875-1.171875 9.90625-1.171875 8.453125 0 13.375 4.4375 4.9375 4.4375 4.9375 12.0625 0 7.609375-4.9375 12.046875-4.921875 4.453125-13.375 4.453125-3.953125 0-7.890625-.875-3.921875-.875-8.015625-2.734375z" stroke-linejoin="round"/><path id="A" d="m44.28125 53.078125v-8.5q-3.796875 1.953125-7.90625 2.921875-4.09375.984375-8.5.984375-6.6875 0-10.03125-2.046875-3.34375-2.046875-3.34375-6.15625 0-3.125 2.390625-4.90625 2.390625-1.78125 9.625-3.390625l3.078125-.6875q9.5625-2.046875 13.59375-5.78125 4.03125-3.734375 4.03125-10.421875 0-7.625-6.03125-12.078125-6.03125-4.4375-16.578125-4.4375-4.390625 0-9.15625.859375-4.765625.859375-10.03125 2.5625v9.28125q4.984375-2.59375 9.8125-3.890625 4.828125-1.28125 9.578125-1.28125 6.34375 0 9.75 2.171875 3.421875 2.171875 3.421875 6.125 0 3.65625-2.46875 5.609375-2.453125 1.953125-10.8125 3.765625l-3.125.734375q-8.34375 1.75-12.0625 5.390625-3.703125 3.640625-3.703125 9.984375 0 7.71875 5.46875 11.90625 5.46875 4.203125 15.53125 4.203125 4.96875 0 9.359375-.734375 4.40625-.71875 8.109375-2.1875z" stroke-linejoin="round"/><path id="B" d="m37.109375 75.984375v-7.484375h-8.59375q-4.828125 0-6.71875-1.953125-1.875-1.953125-1.875-7.03125v-4.828125h14.796875v-6.984375h-14.796875v-47.703125h-9.03125v47.703125h-8.59375v6.984375h8.59375v3.8125q0 9.125 4.25 13.296875 4.25 4.1875 13.46875 4.1875z" stroke-linejoin="round"/><path id="C" d="m10.6875 12.40625h10.3125v-12.40625h-10.3125z" stroke-linejoin="round"/><path id="D" d="m10.984375 1.515625v8.984375q3.71875-1.765625 7.515625-2.6875 3.8125-.921875 7.484375-.921875 9.765625 0 14.90625 6.5625 5.15625 6.5625 5.890625 19.953125-2.828125-4.203125-7.1875-6.453125-4.34375-2.25-9.609375-2.25-10.9375 0-17.3125 6.609375-6.375 6.625-6.375 18.109375 0 11.21875 6.640625 18 6.640625 6.796875 17.671875 6.796875 12.65625 0 19.3125-9.703125 6.671875-9.6875 6.671875-28.140625 0-17.234375-8.1875-27.515625-8.171875-10.28125-21.984375-10.28125-3.71875 0-7.53125.734375-3.796875.734375-7.90625 2.203125zm19.625 30.90625q6.640625 0 10.515625 4.53125 3.890625 4.546875 3.890625 12.46875 0 7.859375-3.890625 12.421875-3.875 4.5625-10.515625 4.5625-6.640625 0-10.515625-4.5625-3.875-4.5625-3.875-12.421875 0-7.921875 3.875-12.46875 3.875-4.53125 10.515625-4.53125z" stroke-linejoin="round"/><path id="E" d="m8.203125 72.90625h46.875v-4.203125l-26.46875-68.703125h-10.296875l24.90625 64.59375h-35.015625z" stroke-linejoin="round"/></defs><g stroke-linejoin="round"><path d="m0 250.134375h516.583009v-250.134375h-516.583009z" fill="none"/><g><path d="m53.35 212.578125h446.4v-190.26h-446.4z" fill="#fff" stroke-linejoin="round"/><path clip-path="url(#a)" d="m53.35 207.821625h327.405826v-9.513h-327.405826z" stroke-linejoin="round"/><path clip-path="url(#a)" d="m53.35 188.795625h425.142857v-9.513h-425.142857z" stroke-linejoin="round"/><path clip-path="url(#a)" d="m53.35 169.769625h315.834737v-9.513h-315.834737z" stroke-linejoin="round"/><path clip-path="url(#a)" d="m53.35 150.743625h188.798884v-9.513h-188.798884z" stroke-linejoin="round"/><path clip-path="url(#a)" d="m53.35 131.717625h204.841873v-9.513h-204.841873z" stroke-linejoin="round"/><path clip-path="url(#a)" d="m53.35 112.691625h195.901182v-9.513h-195.901182z" stroke-linejoin="round"/><path clip-path="url(#a)" d="m53.35 93.665625h196.090918v-9.513h-196.090918z" stroke-linejoin="round"/><path clip-path="url(#a)" d="m53.35 74.639625h193.519852v-9.513h-193.519852z" stroke-linejoin="round"/><path clip-path="url(#a)" d="m53.35 55.613625h201.647847v-9.513h-201.647847z" stroke-linejoin="round"/><path clip-path="url(#a)" d="m53.35 36.587625h209.456172v-9.513h-209.456172z" stroke-linejoin="round"/><g stroke-linejoin="round"><g><use stroke="#000" stroke-width=".8" x="53.35" xlink:href="#b" y="212.578125"/><use transform="matrix(.1 0 0 -.1 50.16875 227.176562)" xlink:href="#c"/></g><g><use stroke="#000" stroke-width=".8" x="107.87515" xlink:href="#b" y="212.578125"/><use transform="matrix(.1 0 0 -.1 104.6939 227.176562)" xlink:href="#d"/></g><g><use stroke="#000" stroke-width=".8" x="162.400299" xlink:href="#b" y="212.578125"/><use transform="matrix(.1 0 0 -.1 159.219049 227.176562)" xlink:href="#e"/></g><g><use stroke="#000" stroke-width=".8" x="216.925449" xlink:href="#b" y="212.578125"/><use transform="matrix(.1 0 0 -.1 213.744199 227.176562)" xlink:href="#f"/></g><g><use stroke="#000" stroke-width=".8" x="271.450598" xlink:href="#b" y="212.578125"/><use transform="matrix(.1 0 0 -.1 268.269348 227.176562)" xlink:href="#g"/></g><g><use stroke="#000" stroke-width=".8" x="325.975748" xlink:href="#b" y="212.578125"/><g transform="matrix(.1 0 0 -.1 319.613248 227.176562)"><use xlink:href="#h"/><use x="63.623047" xlink:href="#c"/></g></g><g><use stroke="#000" stroke-width=".8" x="380.500898" xlink:href="#b" y="212.578125"/><g transform="matrix(.1 0 0 -.1 374.138398 227.176562)"><use xlink:href="#h"/><use x="63.623047" xlink:href="#d"/></g></g><g><use stroke="#000" stroke-width=".8" x="435.026047" xlink:href="#b" y="212.578125"/><g transform="matrix(.1 0 0 -.1 428.663547 227.176562)"><use xlink:href="#h"/><use x="63.623047" xlink:href="#e"/></g></g><g><use stroke="#000" stroke-width=".8" x="489.551197" xlink:href="#b" y="212.578125"/><g transform="matrix(.1 0 0 -.1 483.188697 227.176562)"><use xlink:href="#h"/><use x="63.623047" xlink:href="#f"/></g></g><g transform="matrix(.1 0 0 -.1 113.79375 240.854687)"><use xlink:href="#i"/><use x="39.208984" xlink:href="#j"/><use x="66.992188" xlink:href="#k"/><use x="164.404297" xlink:href="#l"/><use x="257.714844" xlink:href="#i"/><use x="296.923828" xlink:href="#m"/><use x="389.892578" xlink:href="#n"/><use x="444.873047" xlink:href="#m"/><use x="506.054688" xlink:href="#k"/><use x="603.466797" xlink:href="#o"/><use x="666.943359" xlink:href="#p"/><use x="730.322266" xlink:href="#i"/><use x="769.53125" xlink:href="#l"/><use x="862.841797" xlink:href="#q"/><use x="944.628906" xlink:href="#j"/><use x="972.412109" xlink:href="#i"/><use x="1011.621094" xlink:href="#r"/><path d="m64.40625 67.28125v-10.390625q-4.984375 4.640625-10.625 6.921875-5.640625 2.296875-11.984375 2.296875-12.5 0-19.140625-7.640625-6.640625-7.640625-6.640625-22.09375 0-14.40625 6.640625-22.046875 6.640625-7.640625 19.140625-7.640625 6.34375 0 11.984375 2.296875 5.640625 2.296875 10.625 6.9375v-10.3125q-5.171875-3.515625-10.96875-5.28125-5.78125-1.75-12.21875-1.75-16.5625 0-26.09375 10.125-9.515625 10.140625-9.515625 27.671875 0 17.578125 9.515625 27.703125 9.53125 10.140625 26.09375 10.140625 6.53125 0 12.3125-1.734375 5.796875-1.734375 10.875-5.203125z" transform="translate(1106.787109)"/><use x="1176.611328" xlink:href="#s"/><use x="1236.914062" xlink:href="#s"/><use x="1297.216797" xlink:href="#t"/><use x="1383.496094" xlink:href="#u"/><use x="1444.775391" xlink:href="#i"/><use x="1483.984375" xlink:href="#v"/><use x="1525.097656" xlink:href="#j"/><use x="1552.880859" xlink:href="#w"/><path d="m25.390625 72.90625h8.296875l-25.390625-82.1875h-8.296875z" transform="translate(1643.847656)"/><use x="1709.326172" xlink:href="#i"/><use x="1748.535156" xlink:href="#j"/><use x="1776.318359" xlink:href="#k"/><use x="1873.730469" xlink:href="#l"/><use x="1967.041016" xlink:href="#i"/><use x="2006.25" xlink:href="#m"/><use x="2099.21875" xlink:href="#n"/><use x="2154.199219" xlink:href="#m"/><use x="2215.380859" xlink:href="#k"/><use x="2312.792969" xlink:href="#o"/><use x="2376.269531" xlink:href="#p"/><use x="2439.648438" xlink:href="#i"/><use x="2478.857422" xlink:href="#l"/><use x="2572.167969" xlink:href="#q"/><use x="2653.955078" xlink:href="#j"/><use x="2681.738281" xlink:href="#i"/><use x="2720.947266" xlink:href="#r"/><path d="m9.8125 72.90625h46.09375v-8.3125h-36.234375v-21.578125h34.71875v-8.296875h-34.71875v-26.421875h37.109375v-8.296875h-46.96875z" transform="translate(2816.113281)"/><path d="m-.296875 72.90625h61.671875v-8.3125h-25.875v-64.59375h-9.90625v64.59375h-25.890625z" transform="translate(2879.296875)"/><use x="2940.380859" xlink:href="#t"/><use x="3026.660156" xlink:href="#u"/><use x="3087.939453" xlink:href="#i"/><use x="3127.148438" xlink:href="#v"/><use x="3168.261719" xlink:href="#j"/><use x="3196.044922" xlink:href="#w"/></g></g><g stroke-linejoin="round"><g><use stroke="#000" stroke-width=".8" x="53.35" xlink:href="#x" y="203.065125"/><g transform="matrix(.1 0 0 -.1 33.625 206.864344)"><use xlink:href="#h"/><use x="63.623047" xlink:href="#c"/></g></g><g><use stroke="#000" stroke-width=".8" x="53.35" xlink:href="#x" y="184.039125"/><g transform="matrix(.1 0 0 -.1 33.625 187.838344)"><use xlink:href="#d"/><use x="63.623047" xlink:href="#c"/></g></g><g><use stroke="#000" stroke-width=".8" x="53.35" xlink:href="#x" y="165.013125"/><g transform="matrix(.1 0 0 -.1 33.625 168.812344)"><use xlink:href="#e"/><use x="63.623047" xlink:href="#c"/></g></g><g><use stroke="#000" stroke-width=".8" x="53.35" xlink:href="#x" y="145.987125"/><g transform="matrix(.1 0 0 -.1 33.625 149.786344)"><use xlink:href="#g"/><use x="63.623047" xlink:href="#c"/></g></g><g><use stroke="#000" stroke-width=".8" x="53.35" xlink:href="#x" y="126.961125"/><g transform="matrix(.1 0 0 -.1 27.2625 130.760344)"><use xlink:href="#h"/><use x="63.623047" xlink:href="#f"/><use x="127.246094" xlink:href="#c"/></g></g><g><use stroke="#000" stroke-width=".8" x="53.35" xlink:href="#x" y="107.935125"/><g transform="matrix(.1 0 0 -.1 27.2625 111.734344)"><use xlink:href="#y"/><use x="63.623047" xlink:href="#d"/><use x="127.246094" xlink:href="#c"/></g></g><g><use stroke="#000" stroke-width=".8" x="53.35" xlink:href="#x" y="88.909125"/><g transform="matrix(.1 0 0 -.1 27.2625 92.708344)"><use xlink:href="#f"/><use x="63.623047" xlink:href="#e"/><use x="127.246094" xlink:href="#c"/></g></g><g><use stroke="#000" stroke-width=".8" x="53.35" xlink:href="#x" y="69.883125"/><g transform="matrix(.1 0 0 -.1 20.9 73.682344)"><use xlink:href="#h"/><use x="63.623047" xlink:href="#d"/><use x="127.246094" xlink:href="#g"/><use x="190.869141" xlink:href="#c"/></g></g><g><use stroke="#000" stroke-width=".8" x="53.35" xlink:href="#x" y="50.857125"/><g transform="matrix(.1 0 0 -.1 20.9 54.656344)"><use xlink:href="#d"/><use x="63.623047" xlink:href="#z"/><use x="127.246094" xlink:href="#f"/><use x="190.869141" xlink:href="#c"/></g></g><g><use stroke="#000" stroke-width=".8" x="53.35" xlink:href="#x" y="31.831125"/><g transform="matrix(.1 0 0 -.1 20.9 35.630344)"><use xlink:href="#z"/><use x="63.623047" xlink:href="#h"/><use x="127.246094" xlink:href="#d"/><use x="190.869141" xlink:href="#c"/></g></g><g transform="matrix(0 -.1 -.1 0 14.8 184.748125)"><path d="m50 53.078125-1.703125-8.5q-3.5625 1.953125-7.53125 2.921875-3.953125.984375-8.140625.984375-7.09375 0-11.171875-2.421875-4.0625-2.40625-4.0625-6.5625 0-4.828125 9.46875-7.421875.734375-.1875 1.078125-.296875l2.875-.875q8.984375-2.484375 11.984375-5.21875 3-2.734375 3-7.46875 0-8.703125-6.90625-14.171875-6.90625-5.46875-18.09375-5.46875-4.34375 0-9.125.84375-4.78125.828125-10.546875 2.578125l1.75 9.28125q4.9375-2.546875 9.71875-3.859375 4.796875-1.3125 9.1875-1.3125 6.59375 0 10.71875 2.828125 4.125 2.828125 4.125 7.171875 0 4.6875-10.84375 7.578125l-.921875.234375-3.078125.78125q-6.84375 1.8125-10.015625 4.765625-3.171875 2.953125-3.171875 7.546875 0 8.734375 6.5625 13.859375 6.578125 5.125 17.859375 5.125 4.4375 0 8.65625-.734375 4.234375-.71875 8.328125-2.1875z" transform="translate(0 .015625)"/><path d="m31 75.875q-6.53125-11.21875-9.71875-22.21875-3.171875-10.984375-3.171875-22.265625 0-11.265625 3.203125-22.328125 3.203125-11.0625 9.6875-22.25h-7.8125q-7.3125 11.484375-10.953125 22.5625-3.640625 11.078125-3.640625 22.015625 0 10.890625 3.609375 21.921875 3.625 11.046875 10.984375 22.5625z" transform="translate(83.886719 .015625)"/><use transform="translate(122.900391 .015625)" xlink:href="#A"/><use transform="translate(175 .015625)" xlink:href="#j"/><path d="m5.515625 54.6875h42.671875v-8.203125l-33.78125-39.3125h33.78125v-7.171875h-43.890625v8.203125l33.796875 39.3125h-32.578125z" transform="translate(202.783203 .015625)"/><use transform="translate(255.273438 .015625)" xlink:href="#l"/><use transform="translate(348.583984 .015625)" xlink:href="#m"/><use transform="translate(409.765625 .015625)" xlink:href="#B"/><use transform="translate(476.757812 .015625)" xlink:href="#A"/><path d="m14.796875 27.296875q0-9.90625 4.078125-15.546875 4.078125-5.640625 11.203125-5.640625 7.125 0 11.21875 5.640625 4.109375 5.640625 4.109375 15.546875 0 9.90625-4.109375 15.546875-4.09375 5.640625-11.21875 5.640625-7.125 0-11.203125-5.640625-4.078125-5.640625-4.078125-15.546875zm30.609375-19.09375q-2.828125-4.875-7.15625-7.25-4.3125-2.375-10.375-2.375-9.90625 0-16.140625 7.90625-6.21875 7.921875-6.21875 20.8125 0 12.890625 6.21875 20.796875 6.234375 7.90625 16.140625 7.90625 6.0625 0 10.375-2.375 4.328125-2.359375 7.15625-7.234375v8.296875h8.984375v-75.484375h-8.984375z" transform="translate(528.857422 .015625)"/><use transform="translate(592.333984 .015625)" xlink:href="#p"/><use transform="translate(655.712891 .015625)" xlink:href="#u"/><use transform="translate(716.992188 .015625)" xlink:href="#v"/><use transform="translate(758.105469 .015625)" xlink:href="#l"/><use transform="translate(851.416016 .015625)" xlink:href="#k"/><use transform="translate(948.828125 .015625)" xlink:href="#u"/><use transform="translate(1010.107422 .015625)" xlink:href="#i"/><use transform="translate(1049.316406 .015625)" xlink:href="#v"/><use transform="translate(1090.429688 .015625)" xlink:href="#j"/><use transform="translate(1118.212891 .015625)" xlink:href="#w"/><path d="m89.796875 33.015625-6.390625-33.015625h-8.984375l6.296875 32.71875q.390625 2.09375.578125 3.609375.203125 1.515625.203125 2.59375 0 4.390625-2.453125 6.828125-2.4375 2.4375-6.828125 2.4375-6.546875 0-11.671875-4.90625-5.125-4.90625-6.640625-12.765625l-6-30.515625h-8.984375l6.390625 32.71875q.390625 1.796875.578125 3.328125.203125 1.546875.203125 2.765625 0 4.453125-2.4375 6.90625-2.4375 2.46875-6.734375 2.46875-6.640625 0-11.78125-4.90625-5.125-4.90625-6.640625-12.765625l-6-30.515625h-8.984375l10.6875 54.6875h8.984375l-1.703125-8.5q3.65625 4.796875 8.5625 7.296875 4.921875 2.515625 10.53125 2.515625 5.953125 0 9.78125-3.125 3.84375-3.125 4.625-8.6875 4.09375 5.765625 9.484375 8.78125 5.40625 3.03125 11.40625 3.03125 7.03125 0 10.859375-4.046875 3.84375-4.046875 3.84375-11.46875 0-1.609375-.203125-3.546875-.1875-1.921875-.578125-3.921875z" transform="translate(1209.179688 .015625)"/><path d="m8.015625 75.875h7.8125q7.3125-11.515625 10.953125-22.5625 3.640625-11.03125 3.640625-21.921875 0-10.9375-3.640625-22.015625-3.640625-11.078125-10.953125-22.5625h-7.8125q6.484375 11.1875 9.6875 22.25 3.203125 11.0625 3.203125 22.328125 0 11.28125-3.203125 22.265625-3.203125 11-9.6875 22.21875z" transform="translate(1306.591797 .015625)"/></g></g><path d="m53.35 212.578125v-190.26" fill="none" stroke="#000" stroke-linecap="square" stroke-linejoin="miter" stroke-width=".8"/><path d="m499.75 212.578125v-190.26" fill="none" stroke="#000" stroke-linecap="square" stroke-linejoin="miter" stroke-width=".8"/><path d="m53.35 212.578125h446.4" fill="none" stroke="#000" stroke-linecap="square" stroke-linejoin="miter" stroke-width=".8"/><path d="m53.35 22.318125h446.4" fill="none" stroke="#000" stroke-linecap="square" stroke-linejoin="miter" stroke-width=".8"/><g stroke-linejoin="round"><g fill="#fff" transform="matrix(.1 0 0 -.1 382.529168 207.821625)"><use xlink:href="#h"/><use x="63.623047" xlink:href="#d"/><use x="127.246094" xlink:href="#C"/><use x="159.033203" xlink:href="#c"/><use x="222.65625" xlink:href="#h"/></g><g transform="matrix(.1 0 0 -.1 382.392855 207.821625)"><use xlink:href="#h"/><use x="63.623047" xlink:href="#d"/><use x="127.246094" xlink:href="#C"/><use x="159.033203" xlink:href="#c"/><use x="222.65625" xlink:href="#h"/></g><g fill="#fff" transform="matrix(.1 0 0 -.1 480.754884 188.795625)"><use xlink:href="#h"/><use x="63.623047" xlink:href="#z"/><use x="127.246094" xlink:href="#C"/><use x="159.033203" xlink:href="#z"/><use x="222.65625" xlink:href="#D"/></g><g transform="matrix(.1 0 0 -.1 480.618571 188.795625)"><use xlink:href="#h"/><use x="63.623047" xlink:href="#z"/><use x="127.246094" xlink:href="#C"/><use x="159.033203" xlink:href="#z"/><use x="222.65625" xlink:href="#D"/></g><g fill="#fff" transform="matrix(.1 0 0 -.1 370.900224 169.769625)"><use xlink:href="#h"/><use x="63.623047" xlink:href="#h"/><use x="127.246094" xlink:href="#C"/><use x="159.033203" xlink:href="#z"/><use x="222.65625" xlink:href="#g"/></g><g transform="matrix(.1 0 0 -.1 370.763911 169.769625)"><use xlink:href="#h"/><use x="63.623047" xlink:href="#h"/><use x="127.246094" xlink:href="#C"/><use x="159.033203" xlink:href="#z"/><use x="222.65625" xlink:href="#g"/></g><g fill="#fff" transform="matrix(.1 0 0 -.1 243.229192 150.743625)"><use xlink:href="#f"/><use x="63.623047" xlink:href="#C"/><use x="95.410156" xlink:href="#D"/><use x="159.033203" xlink:href="#y"/></g><g transform="matrix(.1 0 0 -.1 243.092879 150.743625)"><use xlink:href="#f"/><use x="63.623047" xlink:href="#C"/><use x="95.410156" xlink:href="#D"/><use x="159.033203" xlink:href="#y"/></g><g fill="#fff" transform="matrix(.1 0 0 -.1 259.352395 131.717625)"><use xlink:href="#E"/><use x="63.623047" xlink:href="#C"/><use x="95.410156" xlink:href="#z"/><use x="159.033203" xlink:href="#h"/></g><g transform="matrix(.1 0 0 -.1 259.216082 131.717625)"><use xlink:href="#E"/><use x="63.623047" xlink:href="#C"/><use x="95.410156" xlink:href="#z"/><use x="159.033203" xlink:href="#h"/></g><g fill="#fff" transform="matrix(.1 0 0 -.1 250.367001 112.691625)"><use xlink:href="#E"/><use x="63.623047" xlink:href="#C"/><use x="95.410156" xlink:href="#h"/><use x="159.033203" xlink:href="#D"/></g><g transform="matrix(.1 0 0 -.1 250.230688 112.691625)"><use xlink:href="#E"/><use x="63.623047" xlink:href="#C"/><use x="95.410156" xlink:href="#h"/><use x="159.033203" xlink:href="#D"/></g><g fill="#fff" transform="matrix(.1 0 0 -.1 250.557686 93.665625)"><use xlink:href="#E"/><use x="63.623047" xlink:href="#C"/><use x="95.410156" xlink:href="#h"/><use x="159.033203" xlink:href="#D"/></g><g transform="matrix(.1 0 0 -.1 250.421373 93.665625)"><use xlink:href="#E"/><use x="63.623047" xlink:href="#C"/><use x="95.410156" xlink:href="#h"/><use x="159.033203" xlink:href="#D"/></g><g fill="#fff" transform="matrix(.1 0 0 -.1 247.973764 74.639625)"><use xlink:href="#E"/><use x="63.623047" xlink:href="#C"/><use x="95.410156" xlink:href="#h"/></g><g transform="matrix(.1 0 0 -.1 247.837451 74.639625)"><use xlink:href="#E"/><use x="63.623047" xlink:href="#C"/><use x="95.410156" xlink:href="#h"/></g><g fill="#fff" transform="matrix(.1 0 0 -.1 256.1424 55.613625)"><use xlink:href="#E"/><use x="63.623047" xlink:href="#C"/><use x="95.410156" xlink:href="#e"/></g><g transform="matrix(.1 0 0 -.1 256.006087 55.613625)"><use xlink:href="#E"/><use x="63.623047" xlink:href="#C"/><use x="95.410156" xlink:href="#e"/></g><g fill="#fff" transform="matrix(.1 0 0 -.1 263.989766 36.587625)"><use xlink:href="#E"/><use x="63.623047" xlink:href="#C"/><use x="95.410156" xlink:href="#f"/><use x="159.033203" xlink:href="#g"/></g><g transform="matrix(.1 0 0 -.1 263.853453 36.587625)"><use xlink:href="#E"/><use x="63.623047" xlink:href="#C"/><use x="95.410156" xlink:href="#f"/><use x="159.033203" xlink:href="#g"/></g><g transform="matrix(.12 0 0 -.12 220.9375 16.318125)"><path d="m9.8125 72.90625h41.890625v-8.3125h-32.03125v-21.484375h28.90625v-8.296875h-28.90625v-34.8125h-9.859375z"/><use x="48.394531" xlink:href="#u"/><use x="109.673828" xlink:href="#n"/><use x="164.654297" xlink:href="#i"/><use x="203.863281" xlink:href="#m"/><use x="265.044922" xlink:href="#v"/><use x="337.945312" xlink:href="#m"/><use x="399.126953" xlink:href="#B"/><use x="466.119141" xlink:href="#A"/><use x="518.21875" xlink:href="#o"/><use x="581.695312" xlink:href="#l"/><use x="643.21875" xlink:href="#l"/><path d="m45.40625 46.390625v29.59375h8.984375v-75.984375h-8.984375v8.203125q-2.828125-4.875-7.15625-7.25-4.3125-2.375-10.375-2.375-9.90625 0-16.140625 7.90625-6.21875 7.921875-6.21875 20.8125 0 12.890625 6.21875 20.796875 6.234375 7.90625 16.140625 7.90625 6.0625 0 10.375-2.375 4.328125-2.359375 7.15625-7.234375zm-30.609375-19.09375q0-9.90625 4.078125-15.546875 4.078125-5.640625 11.203125-5.640625 7.125 0 11.21875 5.640625 4.109375 5.640625 4.109375 15.546875 0 9.90625-4.109375 15.546875-4.09375 5.640625-11.21875 5.640625-7.125 0-11.203125-5.640625-4.078125-5.640625-4.078125-15.546875z" transform="translate(704.742188)"/><use x="800.005859" xlink:href="#p"/><use x="863.384766" xlink:href="#o"/></g></g></g></g></svg>