<svg height="228pt" viewBox="0 0 589 228" width="589pt" xmlns="http://www.w3.org/2000/svg" xmlns:xlink="http://www.w3.org/1999/xlink"><symbol id="a" overflow="visible"><path d="m.9375-6.921875v6.90625h4.03125v-.65625h-3.140625v-6.25zm0 0"/></symbol><symbol id="b" overflow="visible"><path d="m.8125-3.515625c.15625-.078125.28125-.171875.4375-.25.328125-.1875.71875-.25 1.109375-.25.59375 0 .84375.671875.84375 1.1875v.375c-1.015625 0-2.765625.234375-2.765625 1.3125 0 .625.4375 1.234375 1.125 1.234375.578125 0 1.234375-.109375 1.671875-.46875v.359375h.75v-2.78125c0-.828125-.4375-1.734375-1.515625-1.8125h-.109375c-.5 0-.953125.109375-1.40625.328125-.078125.03125-.203125.078125-.203125.1875 0 .203125.0625.390625.0625.578125zm2.390625 1.578125v.640625c0 .578125-.59375.796875-1.109375.796875-.421875 0-.9375-.203125-.9375-.671875.015625-.484375.796875-.640625 1.171875-.6875.28125-.046875.578125-.078125.875-.078125zm0 0"/></symbol><symbol id="c" overflow="visible"><path d="m.421875-4.4375v.59375h2.515625l-2.640625 3.421875-.015625.40625h3.71875v-.609375h-2.671875l2.65625-3.421875v-.390625zm0 0"/></symbol><symbol id="d" overflow="visible"><path d="m.140625-4.4375c.125.359375.3125.71875.46875 1.0625.421875 1 .84375 1.96875 1.28125 2.953125l.109375.25c.03125.046875.046875.09375.0625.140625v.015625c0 .046875-.015625.09375-.03125.125l-.109375.25c-.15625.40625-.359375 1.109375-.765625 1.109375-.265625 0-.53125-.078125-.796875-.15625.015625.34375-.015625.625.1875.671875.1875.015625.390625.046875.578125.046875.84375 0 1.140625-1.109375 1.421875-1.796875l.6875-1.703125c.359375-.859375.71875-1.71875 1.046875-2.5625.0625-.140625.125-.265625.171875-.40625h-.640625c-.1875 0-.375.640625-.5.96875-.328125.796875-.625 1.59375-.859375 2.421875-.046875.171875-.078125.359375-.078125.53125-.03125-.09375-.03125-.203125-.046875-.296875-.25-1.140625-.828125-2.34375-1.265625-3.328125l-.078125-.1875c-.0625-.078125-.0625-.109375-.171875-.109375zm0 0"/></symbol><symbol id="e" overflow="visible"><path d="m4.03125-1.0625c-.5.3125-.90625.546875-1.46875.546875-.78125 0-1.53125-.6875-1.53125-1.671875h3.09375c0-.6875-.109375-1.4375-.59375-1.953125-.3125-.3125-.734375-.46875-1.171875-.46875-.546875 0-1.046875.265625-1.40625.65625-.421875.46875-.609375 1.109375-.609375 1.734375v.046875c0 1.171875.90625 2.265625 2.171875 2.265625.5 0 1-.140625 1.421875-.40625.0625-.0625.15625-.078125.15625-.171875 0-.1875-.0625-.390625-.0625-.578125zm-2.9375-1.671875c.125-.609375.5625-1.25 1.265625-1.25s1.125.578125 1.203125 1.25zm0 0"/></symbol><symbol id="f" overflow="visible"><path d="m.140625-4.4375c.03125.140625.09375.265625.15625.40625l.296875.796875c.390625.984375.75 1.96875 1.15625 2.9375.046875.171875.0625.28125.21875.28125h.65625c.203125 0 .453125-.875.625-1.328125.265625-.6875.53125-1.390625.8125-2.078125l.234375-.625c.046875-.125.109375-.265625.15625-.390625h-.640625c-.109375 0-.125.046875-.15625.125l-.34375.890625c-.3125.8125-.625 1.640625-.90625 2.484375-.03125.140625-.078125.28125-.09375.421875l-.078125-.3125-.328125-.96875-.875-2.34375-.140625-.28125-.203125-.015625zm0 0"/></symbol><symbol id="g" overflow="visible"><path d="m.8125-7.203125v7.1875h.75v-7.1875zm0 0"/></symbol><symbol id="h" overflow="visible"><path d="m.8125-4.4375v2.890625c0 .125-.015625.265625-.015625.40625 0 .328125.03125.671875.234375.921875s.53125.328125.84375.328125c.625 0 1.234375-.203125 1.71875-.59375v.46875h.75v-4.421875h-.78125v2.765625c0 .78125-.421875 1.21875-1.28125 1.21875-.421875 0-.703125-.171875-.703125-.65625v-3.328125zm0 0"/></symbol><symbol id="i" overflow="visible"><path d="m1.0625-5.703125v1.265625h-.890625v.59375h.859375v2.625c0 .546875.109375 1.3125.828125 1.3125.515625 0 1-.140625 1.453125-.375l-.15625-.59375c-.296875.203125-.546875.34375-.90625.34375-.453125 0-.5-.5-.5-.84375v-2.46875h1.40625v-.59375h-1.40625v-1.265625zm0 0"/></symbol><symbol id="j" overflow="visible"><path d="m.8125-4.4375v4.421875h.75v-4.421875zm-.078125-2.34375v.875h.890625v-.875zm0 0"/></symbol><symbol id="k" overflow="visible"><path d="m2.34375-4.609375c-1.25.15625-2.046875 1.234375-2.046875 2.390625 0 1.109375.8125 2.3125 2.203125 2.3125h.125c1.21875-.140625 1.984375-1.0625 2.046875-2.171875v-.140625c0-1.15625-.859375-2.390625-2.203125-2.390625zm-1.265625 2.46875c-.015625-.0625-.015625-.125-.015625-.1875 0-.828125.53125-1.671875 1.4375-1.671875.875 0 1.390625.8125 1.390625 1.703125 0 .765625-.359375 1.765625-1.390625 1.765625-.828125 0-1.328125-.71875-1.421875-1.609375zm0 0"/></symbol><symbol id="l" overflow="visible"><path d="m1.53125-3.78125v-.71875h-.71875v4.484375h.765625v-2.265625c0-.59375.109375-1.65625 1-1.65625.65625 0 .984375.40625.984375 1.0625v.359375 2.5h.78125v-2.359375c0-.171875 0-.359375 0-.546875 0-.734375-.171875-1.625-1.359375-1.625-.625 0-1.078125.3125-1.453125.765625zm0 0"/></symbol><symbol id="m" overflow="visible"><path d="m.140625-4.4375 1.359375 4.421875h.78125l.75-2.46875.28125-1.171875.0625-.28125.046875.421875.171875.6875.75 2.53125.09375.265625.078125.015625h.78125l1.359375-4.421875h-.71875l-.828125 2.734375-.1875.703125-.09375.484375c-.015625-.15625-.046875-.3125-.09375-.46875l-.15625-.578125c-.234375-.875-.515625-1.75-.78125-2.640625-.046875-.125-.015625-.234375-.1875-.234375h-.484375c-.171875 0-.1875.25-.21875.359375-.28125.84375-.53125 1.703125-.75 2.578125-.078125.328125-.1875.65625-.1875.984375h-.015625c-.03125-.390625-.140625-.796875-.25-1.171875-.21875-.828125-.453125-1.625-.71875-2.4375-.03125-.109375-.0625-.21875-.09375-.3125zm0 0"/></symbol><symbol id="n" overflow="visible"><path d="m.8125-7.203125v7.1875h.765625v-2.265625c0-.59375.109375-1.65625 1-1.65625.65625 0 .984375.40625.984375 1.0625v.359375 2.5h.78125v-2.359375c0-.171875 0-.359375 0-.546875 0-.734375-.171875-1.625-1.359375-1.625-.609375 0-1.046875.296875-1.421875.71875v-3.375zm0 0"/></symbol><symbol id="o" overflow="visible"><path d="m.0625-4.4375c.125.1875.296875.359375.453125.53125l.90625 1.03125c.15625.1875.484375.484375.484375.578125 0 .109375-.328125.421875-.484375.609375-.3125.359375-.609375.71875-.921875 1.09375-.171875.1875-.34375.390625-.5.578125h.8125l1.453125-1.875 1.5 1.875h.8125l-1.984375-2.265625 1.828125-2.15625h-.828125l-1.34375 1.640625-1.375-1.625-.25-.015625zm0 0"/></symbol><symbol id="p" overflow="visible"><path d="m1.5625-3.953125v-.484375h-.75v6.359375h.78125v-2.390625c.375.34375.84375.5625 1.359375.5625 1.15625 0 1.828125-1.265625 1.828125-2.3125 0-.859375-.40625-2.34375-1.59375-2.34375-.5625 0-1.1875.21875-1.625.609375zm2.4375 1.875c-.078125.75-.59375 1.5625-1.453125 1.5625-.359375 0-.953125-.3125-.953125-.734375v-1.5c0-.109375-.015625-.234375-.015625-.34375 0-.453125.578125-.8125 1.078125-.8125.828125 0 1.34375.890625 1.34375 1.65625zm0 0"/></symbol><symbol id="q" overflow="visible"><path d="m1.53125-3.59375v-.90625h-.71875v4.484375h.75v-1.984375c0-.765625.265625-1.421875 1.125-1.765625.171875-.078125.375-.109375.578125-.109375v-.671875c-.65625 0-1.5.40625-1.734375.953125zm0 0"/></symbol><symbol id="r" overflow="visible"><path d="m.40625-1.03125c-.046875.203125-.109375.4375-.109375.625 0 .265625 1.03125.453125 1.15625.46875.15625.015625.328125.03125.515625.03125.734375 0 1.625-.28125 1.625-1.375 0-.640625-.5-1.15625-1.078125-1.328125-.484375-.140625-1.46875-.109375-1.46875-.796875 0-.40625.375-.609375.78125-.609375.34375 0 .6875.03125 1.015625.171875.171875.0625.3125.15625.46875.21875l.109375-.65625c-.484375-.21875-.9375-.328125-1.453125-.328125-.765625 0-1.640625.3125-1.640625 1.296875 0 .78125.6875 1.203125 1.34375 1.328125.453125.078125 1.203125.15625 1.203125.78125 0 .46875-.46875.671875-.90625.671875-.578125 0-1.015625-.171875-1.5625-.5zm0 0"/></symbol><symbol id="s" overflow="visible"><path d="m1.53125-3.78125v-.71875h-.71875v4.484375h.765625v-2.265625c0-.625.125-1.65625 1-1.65625.65625 0 1 .375 1 1.046875 0 .125-.015625.25-.015625.375v2.5h.78125v-2.265625c0-.625.125-1.65625 1-1.65625.640625 0 1 .375 1 1.046875 0 .125-.015625.25-.015625.375v2.5h.78125v-2.84375c0-.359375-.015625-.71875-.171875-1.046875-.203125-.453125-.703125-.640625-1.203125-.640625-.578125 0-1.140625.28125-1.484375.8125-.25-.5-.546875-.8125-1.265625-.8125-.546875 0-1.203125.296875-1.453125.765625zm0 0"/></symbol><symbol id="t" overflow="visible"><path d="m.96875-4.4375v.84375h.828125v-.84375zm0 3.59375v.828125h.828125v-.828125zm0 0"/></symbol><symbol id="u" overflow="visible"><path d="m.96875-.84375v.828125h.828125v-.828125zm0 0"/></symbol><symbol id="v" overflow="visible"><path d="m.9375-6.890625v6.875h4.578125v-.703125h-3.6875v-2.578125h3.28125v-.59375h-3.28125v-2.375h3.5625v-.625zm0 0"/></symbol><symbol id="w" overflow="visible"><path d="m.921875-.34375v.015625c-.359375.203125-.640625.609375-.640625 1.03125 0 .9375 1.3125 1.34375 2.1875 1.34375.9375 0 2.21875-.359375 2.21875-1.4375-.125-1.1875-1.234375-1.3125-2.109375-1.3125h-.890625c-.3125 0-.484375-.25-.484375-.546875v-.0625c.015625-.109375.046875-.1875.078125-.265625.375.15625.578125.28125.9375.28125.90625 0 1.59375-.78125 1.59375-1.640625v-.078125c-.03125-.328125-.15625-.625-.328125-.90625l1.34375-.015625-.109375-.609375c-.453125 0-.9375.078125-1.375.234375-.046875.03125-.109375.0625-.15625.0625-.078125 0-.1875-.09375-.25-.125-.21875-.109375-.46875-.171875-.703125-.171875-.84375 0-1.609375.671875-1.609375 1.609375 0 .3125.078125.609375.234375.875.015625.03125.0625.09375.0625.140625 0 .078125-.140625.25-.1875.390625-.046875.15625-.078125.3125-.078125.453125 0 .265625.09375.546875.265625.734375zm.65625.359375h.9375c.5625 0 1.484375.046875 1.484375.6875 0 .6875-1.234375.765625-1.5.765625-.515625 0-1.515625-.140625-1.515625-.765625 0-.34375.25-.640625.59375-.6875zm.53125-4h.078125c.6875 0 .921875.546875.921875 1.046875 0 .53125-.234375 1-.796875 1.078125h-.078125c-.671875 0-.921875-.546875-.921875-1.046875 0-.515625.234375-.984375.796875-1.078125zm0 0"/></symbol><symbol id="x" overflow="visible"><path d="m4.828125-5.796875c0-.15625 0-.40625-.296875-.40625-.1875 0-.234375.109375-.28125.171875-.015625.046875-.015625.0625-.15625.3125-.328125-.28125-.78125-.484375-1.296875-.484375-1.28125 0-2.390625 1.34375-2.390625 3.15625 0 1.828125 1.109375 3.15625 2.40625 3.15625 1.15625 0 2.015625-.890625 2.015625-1.78125 0-.328125-.25-.328125-.359375-.328125-.078125 0-.3125 0-.328125.28125-.078125.984375-.875 1.21875-1.296875 1.21875-.90625 0-1.75-1.0625-1.75-2.546875s.859375-2.546875 1.75-2.546875c.59375 0 1.140625.453125 1.28125 1.265625.03125.171875.046875.328125.34375.328125.359375 0 .359375-.203125.359375-.40625zm0 0"/></symbol><symbol id="y" overflow="visible"><path d="m1.65625-2.4375h1.25c1.15625 0 1.875-.90625 1.875-1.828125s-.734375-1.828125-1.875-1.828125h-2.234375c-.15625 0-.40625 0-.40625.296875 0 .3125.25.3125.40625.3125h.296875v4.875h-.296875c-.15625 0-.40625 0-.40625.3125 0 .296875.25.296875.40625.296875h1.28125c.15625 0 .40625 0 .40625-.296875 0-.3125-.25-.3125-.40625-.3125h-.296875zm0-3.046875h1.0625c.953125 0 1.375.6875 1.375 1.21875s-.421875 1.21875-1.375 1.21875h-1.0625zm0 0"/></symbol><symbol id="z" overflow="visible"><path d="m2.890625-3.671875c-.125.359375-.203125.640625-.265625.9375h-.015625c-.09375-.46875-.96875-3.0625-1-3.125-.09375-.234375-.34375-.234375-.484375-.234375h-.5625c-.140625 0-.390625 0-.390625.296875 0 .3125.203125.3125.53125.3125v4.875c-.328125 0-.53125 0-.53125.3125 0 .296875.25.296875.390625.296875h.828125c.140625 0 .390625 0 .390625-.296875 0-.3125-.203125-.3125-.53125-.3125v-4.75h.015625c.109375.453125.75 2.375.78125 2.5.09375.234375.21875.609375.265625.671875.0625.078125.1875.15625.296875.15625.125 0 .265625-.078125.34375-.21875.03125-.0625.890625-2.578125 1-3.109375h.015625v4.75c-.3125 0-.53125 0-.53125.3125 0 .296875.25.296875.40625.296875h.8125c.15625 0 .390625 0 .390625-.296875 0-.3125-.203125-.3125-.515625-.3125v-4.875c.3125 0 .515625 0 .515625-.3125 0-.296875-.234375-.296875-.390625-.296875h-.5625c-.40625 0-.4375.140625-.53125.40625zm0 0"/></symbol><symbol id="A" overflow="visible"><path d="m3.65625-.3125c.21875.296875.6875.3125 1.0625.3125.28125 0 .5 0 .5-.3125 0-.296875-.25-.296875-.390625-.296875-.421875 0-.515625-.046875-.59375-.078125v-2.15625c0-.703125-.546875-1.546875-1.984375-1.546875-.421875 0-1.4375 0-1.4375.734375 0 .296875.203125.453125.4375.453125.15625 0 .4375-.09375.4375-.453125 0-.078125.015625-.09375.21875-.109375.140625-.015625.265625-.015625.359375-.015625.75 0 1.265625.3125 1.265625 1.015625-1.75.03125-2.984375.53125-2.984375 1.484375 0 .6875.625 1.34375 1.640625 1.34375.375 0 1-.078125 1.46875-.375zm-.125-1.859375v.84375c0 .21875 0 .4375-.375.609375-.359375.171875-.8125.171875-.890625.171875-.625 0-1.03125-.34375-1.03125-.734375 0-.484375.859375-.859375 2.296875-.890625zm0 0"/></symbol><symbol id="B" overflow="visible"><path d="m2.21875-3.6875h1.625c.15625 0 .40625 0 .40625-.296875 0-.3125-.25-.3125-.40625-.3125h-1.625v-.8125c0-.1875 0-.40625-.34375-.40625s-.34375.203125-.34375.40625v.8125h-.875c-.15625 0-.40625 0-.40625.3125 0 .296875.25.296875.390625.296875h.890625v2.4375c0 .953125.671875 1.3125 1.40625 1.3125s1.53125-.4375 1.53125-1.3125c0-.1875 0-.390625-.34375-.390625-.328125 0-.34375.203125-.34375.375 0 .625-.578125.71875-.796875.71875-.765625 0-.765625-.515625-.765625-.765625zm0 0"/></symbol><symbol id="C" overflow="visible"><path d="m2.21875-1.859375c0-.9375.578125-1.890625 1.78125-1.890625.015625.234375.1875.4375.4375.4375.21875 0 .421875-.15625.421875-.421875 0-.203125-.125-.625-.953125-.625-.5 0-1.140625.1875-1.6875.8125v-.34375c0-.3125-.0625-.40625-.40625-.40625h-1.09375c-.15625 0-.40625 0-.40625.296875 0 .3125.25.3125.40625.3125h.8125v3.078125h-.8125c-.15625 0-.40625 0-.40625.296875 0 .3125.25.3125.40625.3125h2.59375c.15625 0 .421875 0 .421875-.296875 0-.3125-.265625-.3125-.421875-.3125h-1.09375zm0 0"/></symbol><symbol id="D" overflow="visible"><path d="m3.078125-3.890625c0-.3125-.0625-.40625-.390625-.40625h-1.421875c-.15625 0-.40625 0-.40625.296875 0 .3125.25.3125.40625.3125h1.125v3.078125h-1.203125c-.15625 0-.40625 0-.40625.3125 0 .296875.25.296875.40625.296875h2.9375c.15625 0 .40625 0 .40625-.296875 0-.3125-.25-.3125-.40625-.3125h-1.046875zm0-1.71875c0-.265625-.21875-.484375-.5-.484375s-.5.21875-.5.484375c0 .28125.21875.5.5.5s.5-.21875.5-.5zm0 0"/></symbol><symbol id="E" overflow="visible"><path d="m2.859375-2.21875 1.140625-1.46875h.390625c.140625 0 .421875 0 .421875-.296875 0-.3125-.265625-.3125-.421875-.3125h-1.15625c-.15625 0-.40625 0-.40625.296875 0 .3125.21875.3125.484375.3125l-.734375 1-.75-1c.25 0 .46875 0 .46875-.3125 0-.296875-.25-.296875-.390625-.296875h-1.171875c-.140625 0-.40625 0-.40625.3125 0 .296875.265625.296875.40625.296875h.40625l1.171875 1.46875-1.234375 1.609375h-.40625c-.140625 0-.40625 0-.40625.3125 0 .296875.265625.296875.40625.296875h1.171875c.15625 0 .40625 0 .40625-.296875 0-.3125-.21875-.3125-.53125-.3125l.859375-1.21875.890625 1.21875c-.28125 0-.5 0-.5.3125 0 .296875.25.296875.40625.296875h1.15625c.140625 0 .40625 0 .40625-.296875 0-.3125-.25-.3125-.40625-.3125h-.390625zm0 0"/></symbol><symbol id="F" overflow="visible"><path d="m.96875-.609375h-.296875c-.15625 0-.40625 0-.40625.3125 0 .296875.25.296875.40625.296875h3.9375c.328125 0 .390625-.09375.390625-.40625v-.890625c0-.1875 0-.40625-.328125-.40625-.359375 0-.359375.203125-.359375.40625v.6875h-2.65625v-2.234375h1.296875c0 .40625 0 .5625.359375.5625.34375 0 .34375-.21875.34375-.40625v-.9375c0-.1875 0-.40625-.34375-.40625-.359375 0-.359375.15625-.359375.578125h-1.296875v-2.03125h2.4375v.53125c0 .1875 0 .40625.34375.40625s.34375-.203125.34375-.40625v-.734375c0-.296875-.0625-.40625-.390625-.40625h-3.71875c-.15625 0-.40625 0-.40625.296875 0 .3125.25.3125.40625.3125h.296875zm0 0"/></symbol><symbol id="G" overflow="visible"><path d="m2.953125-5.484375h1.328125v.53125c0 .1875 0 .40625.328125.40625.359375 0 .359375-.203125.359375-.40625v-.734375c0-.296875-.0625-.40625-.40625-.40625h-3.890625c-.328125 0-.40625.078125-.40625.40625v.734375c0 .1875 0 .40625.328125.40625.359375 0 .359375-.203125.359375-.40625v-.53125h1.3125v4.875h-.515625c-.140625 0-.390625 0-.390625.296875 0 .3125.234375.3125.390625.3125h1.734375c.140625 0 .390625 0 .390625-.296875 0-.3125-.234375-.3125-.390625-.3125h-.53125zm0 0"/></symbol><symbol id="H" overflow="visible"><path d="m3.25 17.546875h.6875v-17.25h2.625v-.6875h-3.3125zm0 0"/></symbol><symbol id="I" overflow="visible"><path d="m3.25 5.984375h.6875v-6h-.6875zm0 0"/></symbol><symbol id="J" overflow="visible"><path d="m3.25 17.53125h3.3125v-.6875h-2.625v-17.25h-.6875zm0 0"/></symbol><symbol id="K" overflow="visible"><path d="m2.703125 17.546875h.6875v-17.9375h-3.328125v.6875h2.640625zm0 0"/></symbol><symbol id="L" overflow="visible"><path d="m2.703125 5.984375h.6875v-6h-.6875zm0 0"/></symbol><symbol id="M" overflow="visible"><path d="m2.703125 16.84375h-2.640625v.6875h3.328125v-17.9375h-.6875zm0 0"/></symbol><symbol id="N" overflow="visible"><path d="m4.578125-.921875c0-.21875 0-.28125-.125-.28125-.609375 0-1.609375-.078125-2.5-.515625-1.078125-.546875-1.484375-1.171875-1.734375-1.5625-.03125-.046875-.09375-.046875-.21875-.046875-.234375 0-.234375.015625-.234375.25v.171875c1.34375 2.4375 3.59375 2.90625 4.609375 2.90625.203125 0 .203125-.015625.203125-.28125zm0 0"/></symbol><symbol id="O" overflow="visible"><path d="m4.71875 1.71875c-1.34375-2.453125-3.59375-2.921875-4.609375-2.921875-.203125 0-.203125.015625-.203125.28125v.640625c0 .234375 0 .28125.140625.28125.59375.015625 1.59375.09375 2.484375.53125 1.078125.53125 1.484375 1.15625 1.734375 1.546875.03125.0625.09375.0625.21875.0625.234375 0 .234375-.015625.234375-.265625zm0 0"/></symbol><symbol id="P" overflow="visible"><path d="m4.578125-.921875c0-.265625 0-.28125-.203125-.28125-1.015625 0-3.265625.484375-4.609375 2.921875v.15625c0 .25 0 .265625.234375.265625.1875 0 .203125-.015625.25-.09375.8125-1.296875 2.1875-2 4.21875-2.046875.109375 0 .109375-.0625.109375-.28125zm0 0"/></symbol><symbol id="Q" overflow="visible"><path d="m4.71875-3.078125c0-.234375 0-.25-.234375-.25-.1875 0-.203125.015625-.25.078125-.8125 1.3125-2.1875 2.015625-4.21875 2.046875-.109375 0-.109375.078125-.109375.28125v.640625c0 .265625 0 .28125.203125.28125 1.015625 0 3.265625-.484375 4.609375-2.90625zm0 0"/></symbol><symbol id="R" overflow="visible"><path d="m4.609375-2.9375c.03125-.140625.03125-.21875.03125-.359375 0-.71875-.484375-1.296875-1.328125-1.296875-.71875 0-1.21875.203125-1.65625.421875-.03125.296875-.078125.625-.078125.65625.453125-.28125.96875-.484375 1.609375-.484375.609375 0 .671875.609375.671875.78125s-.125.75-.15625.765625-.1875.015625-.234375.015625c-.734375.03125-2.828125.234375-2.828125 1.59375 0 .15625.046875.953125.921875.953125.25 0 1.09375-.046875 1.734375-.453125-.015625.078125-.046875.265625-.0625.34375h.75zm-1.125 1.640625c-.1875.796875-1.15625.796875-1.296875.796875-.5 0-.796875-.21875-.796875-.53125 0-.796875 1.765625-.875 2.21875-.90625zm0 0"/></symbol><symbol id="S" overflow="visible"><path d="m7.75-3.03125c.03125-.171875.0625-.28125.0625-.5 0-.609375-.3125-1-1.109375-1-.875 0-1.421875.578125-1.671875.828125-.03125-.40625-.234375-.828125-1.09375-.828125-.796875 0-1.390625.515625-1.609375.75l.15625-.703125h-.71875l-.953125 4.484375h.765625l.484375-2.265625c.203125-.921875.609375-1.65625 1.359375-1.65625.421875 0 .8125.125.8125.65625 0 .03125-.015625.1875-.015625.203125l-.65625 3.0625h.78125l.484375-2.265625c.203125-.921875.609375-1.65625 1.359375-1.65625.421875 0 .8125.125.8125.65625 0 .03125-.015625.1875-.015625.203125l-.65625 3.0625h.78125zm0 0"/></symbol><symbol id="T" overflow="visible"><path d="m3.046875-6.921875h-.75l-1.484375 6.921875h.78125l.09375-.453125c.28125.328125.671875.5625 1.21875.5625 1.1875 0 2.421875-1.390625 2.421875-3.015625 0-.8125-.359375-1.625-1.203125-1.625-.578125 0-1.234375.21875-1.71875.578125zm-.734375 3.578125c.09375-.109375.546875-.578125 1.171875-.578125.59375 0 1.0625.390625 1.0625 1.15625 0 1.125-.765625 2.265625-1.890625 2.265625-.421875 0-.6875-.234375-.8125-.640625zm0 0"/></symbol><symbol id="U" overflow="visible"><path d="m4.96875-4.15625c-.515625-.375-.90625-.4375-1.4375-.4375-1.59375 0-2.765625 1.578125-2.765625 2.90625 0 .90625.578125 1.796875 1.734375 1.796875.515625 0 1.09375-.140625 1.734375-.515625l.078125-.65625c-.390625.25-.953125.53125-1.6875.53125-.6875 0-1.0625-.5-1.0625-1.21875 0-.859375.59375-2.203125 1.84375-2.203125.59375 0 .859375.109375 1.3125.4375zm0 0"/></symbol><symbol id="V" overflow="visible"><path d="m2.234375-4.71875h-.15625c-.453125.421875-1.015625.453125-1.4375.453125v.453125c.265625-.015625.625-.03125.96875-.171875v3.546875h-.921875v.4375h2.46875v-.4375h-.921875zm0 0"/></symbol><symbol id="W" overflow="visible"><path d="m1.34375 0v-.625h-.640625v.625h.203125l-.203125.890625h.3125zm0 0"/></symbol><symbol id="X" overflow="visible"><path d="m1.96875-.53125c-.078125 0-.15625 0-.25 0h-.796875l1.078125-.953125c.125-.109375.46875-.375.609375-.484375.296875-.28125.71875-.640625.71875-1.25 0-.78125-.59375-1.5-1.59375-1.5-.734375 0-1.1875.390625-1.421875 1.109375l.328125.40625c.15625-.578125.390625-1.03125 1-1.03125.59375 0 1.03125.40625 1.03125 1.03125 0 .578125-.34375.90625-.75 1.3125-.140625.140625-.515625.453125-.671875.59375-.203125.171875-.671875.640625-.875.8125v.484375h2.953125v-.53125zm0 0"/></symbol><symbol id="Y" overflow="visible"><path d="m2.125-5.21875c-.125 0-.125 0-.21875.0625-.875.765625-1.328125 2.015625-1.328125 3.421875 0 1.3125.40625 2.578125 1.328125 3.390625.09375.078125.09375.078125.21875.078125h.328125c-.015625 0-.6875-.578125-1.015625-1.671875-.15625-.546875-.25-1.109375-.25-1.796875 0-2.421875 1.140625-3.375 1.265625-3.484375zm0 0"/></symbol><symbol id="Z" overflow="visible"><path d="m3.03125-1.578125h2.0625c.09375 0 .25 0 .25-.15625 0-.171875-.15625-.171875-.25-.171875h-2.0625v-2.046875c0-.109375 0-.25-.15625-.25s-.15625.140625-.15625.25v2.046875h-2.0625c-.09375 0-.25 0-.25.171875 0 .15625.15625.15625.25.15625h2.0625v2.046875c0 .109375 0 .25.15625.25s.15625-.140625.15625-.25zm0 0"/></symbol><symbol id="aa" overflow="visible"><path d="m.75 1.734375c.109375 0 .125 0 .21875-.0625.875-.765625 1.3125-2.015625 1.3125-3.40625 0-1.328125-.390625-2.59375-1.3125-3.40625-.09375-.078125-.109375-.078125-.21875-.078125h-.34375c.03125 0 .703125.578125 1.015625 1.671875.171875.546875.25 1.109375.25 1.8125 0 2.40625-1.125 3.359375-1.265625 3.46875zm0 0"/></symbol><symbol id="ab" overflow="visible"><path d="m.703125-3.578125c.28125-.546875.78125-.703125 1.109375-.703125.421875 0 .71875.234375.71875.625 0 .375-.25.828125-.78125.921875-.03125 0-.0625 0-.515625.03125v.46875h.546875c.65625 0 .90625.515625.90625.953125 0 .546875-.34375.96875-.875.96875-.5 0-1.0625-.234375-1.421875-.6875l-.078125.453125c.390625.453125.96875.6875 1.5.6875.921875 0 1.578125-.671875 1.578125-1.40625 0-.578125-.46875-1.03125-1.015625-1.1875.53125-.28125.796875-.75.796875-1.203125 0-.59375-.59375-1.0625-1.34375-1.0625-.609375 0-1.125.328125-1.421875.734375zm0 0"/></symbol><symbol id="ac" overflow="visible"><path d="m3.171875-2.984375c-.34375-.15625-.609375-.21875-1.03125-.21875-1.4375 0-1.4375 1.078125-1.4375 1.09375 0 .609375.65625.734375.984375.796875.3125.0625.625.125.625.40625 0 0 0 .5-.765625.5-.421875 0-.8125-.125-1.078125-.359375l-.171875.4375c-.015625 0-.03125.0625-.03125.078125 0 .03125.484375.3125 1.171875.3125.15625 0 .640625 0 1.015625-.296875.328125-.28125.421875-.65625.421875-.84375 0-.265625-.125-.46875-.3125-.609375s-.296875-.15625-.828125-.25c-.15625-.046875-.453125-.09375-.453125-.359375 0-.015625 0-.453125.703125-.453125.390625 0 .671875.078125 1 .265625zm0 0"/></symbol><symbol id="ad" overflow="visible"><path d="m5.75-2.078125c.015625-.125.03125-.203125.03125-.375 0-.59375-.453125-.703125-.828125-.703125-.546875 0-.96875.28125-1.234375.5625-.0625-.375-.3125-.5625-.828125-.5625-.390625 0-.8125.15625-1.1875.515625l.109375-.5h-.5625l-.671875 3.140625h.609375l.296875-1.453125c.109375-.421875.140625-.640625.375-.921875.171875-.21875.390625-.328125.640625-.328125.34375 0 .59375.125.59375.453125 0 .109375 0 .125-.015625.171875l-.4375 2.078125h.59375l.3125-1.453125c.09375-.421875.140625-.640625.375-.921875.171875-.21875.375-.328125.625-.328125.359375 0 .609375.125.609375.453125 0 .109375-.015625.125-.015625.171875l-.453125 2.078125h.609375zm0 0"/></symbol><symbol id="ae" overflow="visible"><path d="m1.59375-3.375h-.109375c-.3125.296875-.734375.3125-1.03125.328125v.3125c.203125 0 .453125-.015625.703125-.109375v2.53125h-.671875v.3125h1.78125v-.3125h-.671875zm0 0"/></symbol><symbol id="af" overflow="visible"><path d="m1.40625-.390625c-.0625 0-.109375.015625-.171875.015625h-.578125l.78125-.6875c.09375-.078125.328125-.265625.421875-.34375.21875-.203125.515625-.453125.515625-.890625 0-.5625-.421875-1.078125-1.125-1.078125-.53125 0-.859375.28125-1.03125.796875l.234375.296875c.109375-.421875.296875-.75.71875-.75s.734375.296875.734375.75c0 .40625-.234375.640625-.53125.921875-.109375.109375-.375.328125-.484375.421875-.140625.140625-.484375.46875-.625.59375v.34375h2.109375v-.390625zm0 0"/></symbol><symbol id="ag" overflow="visible"><path d="m.5-2.5625c.203125-.390625.5625-.5.796875-.5.296875 0 .515625.171875.515625.453125 0 .265625-.171875.578125-.5625.65625-.015625 0-.03125 0-.375.03125v.328125h.390625c.484375 0 .65625.375.65625.6875 0 .390625-.234375.6875-.625.6875-.359375 0-.765625-.171875-1.015625-.5l-.0625.328125c.296875.328125.6875.5 1.078125.5.65625 0 1.125-.5 1.125-1.015625 0-.40625-.328125-.734375-.71875-.859375.375-.1875.5625-.515625.5625-.84375 0-.421875-.421875-.765625-.953125-.765625-.4375 0-.8125.234375-1.015625.53125zm0 0"/></symbol><symbol id="ah" overflow="visible"><path d="m4.078125-2.296875h2.78125c.140625 0 .328125 0 .328125-.203125 0-.1875-.1875-.1875-.328125-.1875h-2.78125v-2.796875c0-.140625 0-.328125-.203125-.328125s-.203125.1875-.203125.328125v2.796875h-2.78125c-.140625 0-.328125 0-.328125.1875 0 .203125.1875.203125.328125.203125h2.78125v2.796875c0 .140625 0 .328125.203125.328125s.203125-.1875.203125-.328125zm0 0"/></symbol><symbol id="ai" overflow="visible"><path d="m6.84375-3.296875c.15625 0 .34375 0 .34375-.1875 0-.203125-.1875-.203125-.328125-.203125h-5.96875c-.140625 0-.328125 0-.328125.203125 0 .1875.1875.1875.328125.1875zm.015625 2c.140625 0 .328125 0 .328125-.203125 0-.1875-.1875-.1875-.34375-.1875h-5.953125c-.140625 0-.328125 0-.328125.1875 0 .203125.1875.203125.328125.203125zm0 0"/></symbol><symbol id="aj" overflow="visible"><path d="m.609375-3.09375v3.09375h.609375v-3.09375zm-.078125-1.71875v.75h.765625v-.75zm0 0"/></symbol><symbol id="ak" overflow="visible"><path d="m.3125-.796875-.09375.546875c.4375.203125.875.3125 1.328125.3125.59375 0 1.234375-.265625 1.234375-.96875 0-.5-.390625-.828125-.8125-.953125-.125-.03125-.25-.0625-.390625-.078125-.234375-.046875-.75-.078125-.75-.421875 0-.328125.390625-.390625.609375-.390625.375 0 .6875.078125 1 .234375.046875.015625.078125.03125.125.046875l.09375-.515625c-.375-.15625-.75-.21875-1.140625-.21875-.546875 0-1.25.203125-1.25.921875 0 .453125.34375.75.75.875.40625.140625 1.1875.078125 1.1875.5625 0 .328125-.421875.40625-.6875.40625-.453125 0-.8125-.140625-1.203125-.359375zm0 0"/></symbol><symbol id="al" overflow="visible"><path d="m.71875-4.84375v4.84375h.625v-4.265625l2.296875 4.140625.0625.109375.09375.015625h.90625v-4.84375h-.625v4.265625l-2.28125-4.15625-.078125-.09375-.078125-.015625zm0 0"/></symbol><symbol id="am" overflow="visible"><path d="m2.71875-4.984375c-.40625.0625-.75.140625-1.09375.359375-.765625.484375-1.203125 1.328125-1.203125 2.21875 0 1.25.9375 2.53125 2.4375 2.53125 1.3125 0 2.421875-1.125 2.421875-2.515625 0-1.046875-.609375-2.09375-1.703125-2.46875-.21875-.078125-.484375-.125-.71875-.125-.046875 0-.09375 0-.140625 0zm-1.53125 2.59375v-.078125c0-.828125.375-1.71875 1.265625-1.953125.140625-.03125.265625-.046875.40625-.046875 1.03125 0 1.65625.984375 1.65625 1.96875 0 .90625-.515625 2.109375-1.671875 2.109375h-.0625c-.875-.046875-1.421875-.859375-1.5625-1.703125-.015625-.09375-.015625-.1875-.03125-.296875zm0 0"/></symbol><symbol id="an" overflow="visible"><path d="m.28125-4.78125v.515625h1.984375v4.265625h.75v-4.28125h1.984375v-.5zm0 0"/></symbol><symbol id="ao" overflow="visible"><path d="m3.125-.78125c-.34375.1875-.65625.328125-1.046875.359375h-.109375c-.5 0-1.078125-.296875-1.15625-1.109375h2.375c0-.734375-.28125-1.671875-1.359375-1.671875-.921875 0-1.578125.78125-1.578125 1.671875 0 .9375.84375 1.59375 1.703125 1.59375.375 0 .796875-.09375 1.109375-.265625.046875-.03125.09375-.046875.09375-.109375 0-.140625-.03125-.3125-.03125-.46875zm-2.25-1.1875c.140625-.40625.484375-.75.953125-.75.453125 0 .765625.265625.921875.75zm0 0"/></symbol><symbol id="ap" overflow="visible"><path d="m.640625-2.375c.125-.046875.21875-.125.328125-.1875.25-.109375.5-.15625.75-.171875h.109375c.390625 0 .640625.34375.640625.765625 0 .078125-.015625.15625-.015625.234375-.796875 0-2.125.15625-2.125.890625 0 .484375.375.90625.890625.90625.421875 0 .953125-.09375 1.265625-.34375v.28125h.625v-1.9375c0-.78125-.578125-1.265625-1.28125-1.265625-.375 0-.75.078125-1.09375.234375-.0625.03125-.140625.03125-.140625.125 0 .140625.046875.3125.046875.46875zm1.8125 1.046875v.25c0 .453125-.34375.65625-.84375.65625-.28125 0-.703125-.109375-.703125-.4375 0-.3125.59375-.359375.8125-.40625.1875-.03125.359375-.03125.546875-.046875h.09375c.03125 0 .0625 0 .09375-.015625zm0 0"/></symbol><symbol id="aq" overflow="visible"><path d="m.6875-.234375c-.234375.09375-.46875.40625-.46875.703125 0 .71875 1.125.953125 1.71875.953125.34375 0 .6875-.046875 1-.1875.328125-.125.703125-.390625.703125-.78125v-.046875c-.09375-.875-1.109375-.921875-1.640625-.921875h-.6875c-.21875 0-.359375-.15625-.359375-.359375v-.03125c.015625-.0625.03125-.109375.046875-.171875.25.109375.4375.203125.71875.203125.640625 0 1.25-.484375 1.25-1.15625 0-.25-.09375-.46875-.234375-.65625l.546875-.015625.46875.03125c-.03125-.234375-.0625-.5-.140625-.5h-.046875c-.34375 0-.75.078125-1.109375.203125l.0625.0625c-.234375-.171875-.515625-.265625-.796875-.265625-.59375 0-1.25.421875-1.25 1.140625 0 .203125.0625.421875.171875.59375.015625.03125.0625.0625.0625.09375 0 .0625-.109375.1875-.140625.296875-.03125.078125-.046875.171875-.046875.265625 0 .203125.0625.390625.171875.546875zm.53125.28125h.875c.375 0 1 .046875 1 .4375 0 .453125-1.046875.484375-1.171875.484375-.390625 0-1.15625-.109375-1.15625-.5 0-.234375.234375-.390625.453125-.421875zm.40625-2.75c.03125 0 .0625-.015625.09375-.015625.359375 0 .671875.21875.671875.703125 0 .390625-.265625.6875-.671875.6875-.375 0-.6875-.21875-.6875-.703125 0-.375.234375-.625.59375-.671875zm0 0"/></symbol><symbol id="ar" overflow="visible"><path d="m1.171875-2.515625v-.640625h-.5625v3.15625h.609375v-1.40625c0-.765625.578125-1.21875 1.296875-1.21875v-.546875c-.515625 0-.96875.21875-1.34375.65625zm0 0"/></symbol><symbol id="as" overflow="visible"><path d="m.609375-4.890625v4.890625h.609375v-4.890625zm0 0"/></symbol><symbol id="at" overflow="visible"><path d="m.109375-3.09375c.03125.109375.09375.203125.15625.3125.40625.8125.78125 1.65625 1.203125 2.46875l.078125.1875c.03125.03125.046875.0625.0625.109375v.015625c0 .03125-.03125.078125-.046875.109375l-.125.265625c-.109375.234375-.234375.609375-.53125.609375-.234375 0-.390625-.078125-.640625-.140625l.046875.515625c.171875.03125.375.0625.546875.0625.4375 0 .65625-.34375.8125-.6875.140625-.234375.25-.484375.359375-.734375.421875-.921875.84375-1.828125 1.25-2.75.046875-.109375.125-.234375.15625-.34375h-.5c-.0625 0-.09375 0-.125.0625l-.046875.125c-.3125.6875-.640625 1.390625-.875 2.125-.03125.109375-.0625.234375-.0625.359375-.03125-.140625-.0625-.296875-.09375-.4375-.25-.75-.625-1.5-.953125-2.171875-.046875-.046875-.046875-.0625-.109375-.0625zm0 0"/></symbol><symbol id="au" overflow="visible"><path d="m.109375-3.09375 1.3125 3.09375h.703125l1.3125-3.09375h-.578125l-.8125 1.9375-.171875.4375-.078125.296875-.0625-.203125-.3125-.796875-.703125-1.671875zm0 0"/></symbol><symbol id="av" overflow="visible"><path d="m.59375-3.09375v2.296875c0 .25.015625.515625.203125.6875.15625.140625.359375.171875.546875.171875.515625 0 .984375-.109375 1.421875-.375v.3125h.625v-3.09375h-.65625v1.9375c0 .140625 0 .28125-.078125.40625-.140625.296875-.5.390625-.8125.390625h-.046875c-.234375 0-.5625-.015625-.5625-.4375v-2.296875zm0 0"/></symbol><symbol id="aw" overflow="visible"><path d="m.796875-3.984375v.890625h-.65625v.453125h.640625v1.578125c0 .421875.015625 1.125.640625 1.125.40625 0 .765625-.109375 1.15625-.25l-.125-.46875c-.265625.125-.4375.203125-.703125.203125-.359375 0-.390625-.390625-.390625-.640625v-1.546875h1.078125v-.453125h-1.078125v-.890625zm0 0"/></symbol><symbol id="ax" overflow="visible"><path d="m2.75-4.890625v2.09375c-.328125-.234375-.75-.375-1.15625-.375-.859375 0-1.328125.84375-1.328125 1.625 0 .765625.453125 1.609375 1.296875 1.609375.4375 0 .828125-.15625 1.15625-.4375v.375h.65625v-4.890625zm-1.84375 3.4375c0-.03125 0-.078125 0-.109375 0-.5625.375-1.125 1.078125-1.125.265625 0 .5.09375.6875.28125.015625.03125.046875.0625.046875.09375v1.359375c0 .3125-.578125.53125-.796875.53125-.625 0-.953125-.46875-1.015625-1.03125zm0 0"/></symbol><symbol id="ay" overflow="visible"><path d="m.609375-4.890625v4.890625h.640625v-.328125c.296875.25.6875.390625 1.0625.390625.90625 0 1.40625-.875 1.40625-1.640625 0-.625-.359375-1.59375-1.1875-1.59375-.46875 0-.921875.140625-1.3125.390625v-2.109375zm2.453125 3.4375c-.03125.59375-.453125 1.03125-1.09375 1.03125-.265625 0-.71875-.21875-.71875-.5v-1c0-.078125 0-.15625 0-.25 0-.328125.46875-.515625.8125-.515625.609375 0 1.015625.5 1.015625 1.09375 0 .046875 0 .109375-.015625.140625zm0 0"/></symbol><symbol id="az" overflow="visible"><path d="m.59375-4.890625v4.890625h.640625v-1.5625c0-.4375.109375-1.125.765625-1.125.203125 0 .484375.046875.625.234375.109375.140625.109375.328125.109375.484375v1.96875h.65625v-1.640625c0-.125 0-.25 0-.375 0-.296875-.03125-.5625-.203125-.828125-.203125-.25-.546875-.328125-.84375-.328125-.4375 0-.8125.171875-1.125.484375v-2.203125zm0 0"/></symbol><symbol id="aA" overflow="visible"><path d="m3.15625-.78125c-.125.046875-.25.125-.375.171875-.265625.109375-.5625.15625-.84375.15625h-.0625c-.609375-.03125-.96875-.5625-.96875-1.109375 0-.578125.375-1.140625 1.03125-1.140625.359375 0 .65625.0625.984375.25.046875.015625.09375.0625.15625.078125.015625-.15625.078125-.328125.078125-.484375 0-.171875-.671875-.3125-1-.34375-.0625 0-.140625 0-.21875 0-.921875 0-1.671875.71875-1.671875 1.6875 0 .9375.84375 1.578125 1.703125 1.578125.390625 0 .8125-.09375 1.125-.25.046875-.03125.109375-.03125.109375-.109375 0-.15625-.046875-.328125-.046875-.484375zm0 0"/></symbol><symbol id="aB" overflow="visible"><path d="m1.8125-3.203125c-.78125.078125-1.59375.65625-1.59375 1.6875v.0625c.046875.9375.890625 1.515625 1.71875 1.515625.84375 0 1.703125-.625 1.703125-1.59375 0-.921875-.765625-1.671875-1.71875-1.671875zm-.953125 1.6875c0-.03125 0-.0625 0-.09375 0-.625.4375-1.109375 1.0625-1.109375.5625 0 1.078125.40625 1.078125 1.125 0 .625-.421875 1.140625-1.0625 1.140625-.59375 0-.984375-.390625-1.078125-1.0625zm0 0"/></symbol><symbol id="aC" overflow="visible"><path d="m1.1875-2.640625v-.515625h-.59375v3.15625h.640625v-1.5625c0-.4375.109375-1.125.765625-1.125.203125 0 .484375.046875.625.234375.109375.140625.109375.328125.109375.484375v1.96875h.65625v-1.5625c0-.4375.09375-1.125.75-1.125.21875 0 .5.046875.640625.234375.09375.140625.109375.328125.109375.484375v1.96875h.640625v-1.984375c0-.25-.015625-.5-.109375-.71875-.1875-.34375-.5625-.46875-.921875-.46875-.4375 0-.96875.203125-1.1875.5625-.25-.453125-.53125-.5625-.984375-.5625-.4375 0-.828125.171875-1.140625.53125zm0 0"/></symbol><symbol id="aD" overflow="visible"><path d="m.046875-3.09375c.09375.140625.265625.25.375.390625.3125.328125.640625.671875.953125.984375.03125.03125.09375.078125.09375.109375 0 .0625-.25.3125-.375.4375-.234375.25-.46875.5-.703125.75-.125.140625-.265625.265625-.390625.421875l.640625-.015625 1.109375-1.296875 1.15625 1.296875.640625.015625c-.09375-.125-.234375-.25-.34375-.359375-.359375-.375-.703125-.75-1.078125-1.125-.03125-.03125-.09375-.078125-.09375-.125 0-.0625.234375-.265625.359375-.390625.21875-.25.453125-.484375.6875-.734375.109375-.109375.234375-.234375.34375-.359375h-.640625l-1.046875 1.125-1.03125-1.125zm0 0"/></symbol><symbol id="aE" overflow="visible"><path d="m1.21875-2.78125v-.3125h-.609375v4.4375h.640625v-1.671875c.3125.25.671875.390625 1.0625.390625.90625 0 1.40625-.859375 1.40625-1.65625 0-.578125-.3125-1.578125-1.140625-1.578125-.484375 0-.953125.125-1.359375.390625zm1.84375 1.3125c-.046875.5625-.5 1.046875-1.078125 1.046875-.25 0-.734375-.21875-.734375-.484375v-1.359375c.046875-.203125.5-.390625.796875-.390625.578125 0 1.03125.515625 1.03125 1.078125 0 .03125 0 .078125-.015625.109375zm0 0"/></symbol><symbol id="aF" overflow="visible"><path d="m1.1875-2.640625v-.515625h-.59375v3.15625h.640625v-1.5625c0-.4375.109375-1.125.765625-1.125.203125 0 .484375.046875.625.234375.109375.140625.109375.328125.109375.484375v1.96875h.65625v-1.640625c0-.125 0-.234375 0-.359375 0-.3125-.03125-.625-.234375-.875-.1875-.21875-.515625-.296875-.8125-.296875-.453125 0-.859375.1875-1.15625.53125zm0 0"/></symbol><symbol id="aG" overflow="visible"><path d="m.109375-3.09375 1.0625 3.078125.0625.015625h.546875l.59375-1.78125.15625-.5625.078125-.34375c.015625.25.09375.484375.171875.71875.1875.640625.4375 1.234375.609375 1.875.03125.0625.03125.09375.109375.09375h.4375.078125c.125 0 .25-.53125.34375-.78125.21875-.703125.453125-1.375.703125-2.0625.03125-.078125.078125-.171875.09375-.25h-.5625l-.078125.1875-.59375 1.8125-.1875.671875-.078125-.296875-.75-2.3125-.03125-.0625h-.546875l-.59375 1.765625-.140625.546875-.078125.359375c-.03125-.125-.03125-.25-.0625-.359375-.203125-.765625-.484375-1.515625-.71875-2.25-.03125-.0625-.046875-.0625-.109375-.0625zm0 0"/></symbol><symbol id="aH" overflow="visible"><path d="m1.1875-1.96875h.875c0 .25 0 .390625.265625.390625s.265625-.171875.265625-.296875v-.640625c0-.140625 0-.3125-.265625-.3125s-.265625.140625-.265625.390625h-.875v-1.359375h1.671875v.359375c0 .125 0 .296875.265625.296875s.265625-.171875.265625-.296875v-.515625c0-.234375-.078125-.3125-.296875-.3125h-2.625c-.109375 0-.296875 0-.296875.234375s.1875.234375.296875.234375h.1875v3.34375h-.1875c-.109375 0-.296875 0-.296875.21875 0 .234375.1875.234375.296875.234375h2.765625c.234375 0 .3125-.0625.3125-.296875v-.625c0-.125 0-.296875-.265625-.296875s-.265625.171875-.265625.296875v.46875h-1.828125zm0 0"/></symbol><symbol id="aI" overflow="visible"><path d="m2.109375-3.796875h.859375v.359375c0 .125 0 .296875.265625.296875s.265625-.171875.265625-.296875v-.515625c0-.234375-.0625-.3125-.296875-.3125h-2.703125c-.21875 0-.3125.046875-.3125.3125v.515625c0 .125 0 .296875.265625.296875s.265625-.171875.265625-.296875v-.359375h.859375v3.34375h-.328125c-.109375 0-.3125 0-.3125.21875 0 .234375.21875.234375.3125.234375h1.203125c.09375 0 .296875 0 .296875-.234375 0-.21875-.203125-.21875-.296875-.21875h-.34375zm0 0"/></symbol><symbol id="aJ" overflow="visible"><path d="m2.078125-2.765625c0 .015625-.1875.578125-.234375.796875-.046875-.21875-.078125-.34375-.171875-.59375l-.453125-1.40625c-.0625-.203125-.125-.296875-.390625-.296875h-.40625c-.109375 0-.3125 0-.3125.234375s.1875.234375.375.234375v3.34375c-.1875 0-.375 0-.375.21875 0 .234375.21875.234375.3125.234375h.546875c.109375 0 .3125 0 .3125-.234375 0-.21875-.1875-.21875-.375-.21875v-3.234375h.015625c.03125.171875.046875.25.125.453125l.5 1.546875c.015625.046875.078125.265625.296875.265625.0625 0 .203125-.03125.265625-.171875.046875-.078125.671875-2.015625.671875-2.078125v3.21875c-.1875 0-.375 0-.375.21875 0 .234375.21875.234375.3125.234375h.5625c.09375 0 .296875 0 .296875-.234375 0-.21875-.1875-.21875-.359375-.21875v-3.34375c.171875 0 .359375 0 .359375-.234375s-.203125-.234375-.296875-.234375h-.40625c-.140625 0-.3125 0-.40625.265625zm0 0"/></symbol><symbol id="aK" overflow="visible"><path d="m3-1.96875c0-.578125-.453125-1.09375-1.40625-1.09375-.328125 0-1.046875 0-1.046875.546875 0 .1875.140625.328125.34375.328125.140625 0 .328125-.078125.328125-.328125 0-.0625.015625-.0625.109375-.078125h.28125c.5625 0 .859375.25.859375.640625-.734375 0-2.09375.171875-2.09375 1.03125 0 .515625.46875.953125 1.171875.953125.5625 0 .90625-.203125 1-.265625.15625.21875.4375.234375.78125.234375.1875 0 .359375 0 .359375-.234375 0-.21875-.1875-.21875-.28125-.21875-.265625 0-.328125-.03125-.40625-.0625zm-.53125.96875c0 .15625 0 .3125-.265625.4375-.25.125-.515625.140625-.609375.140625-.40625 0-.6875-.25-.6875-.5 0-.375.765625-.578125 1.5625-.59375zm0 0"/></symbol><symbol id="aL" overflow="visible"><path d="m1.59375-2.546875h1.109375c.109375 0 .296875 0 .296875-.234375 0-.21875-.1875-.21875-.296875-.21875h-1.109375v-.5625c0-.125 0-.296875-.265625-.296875s-.265625.171875-.265625.296875v.5625h-.578125c-.109375 0-.3125 0-.3125.21875 0 .234375.203125.234375.296875.234375h.59375v1.59375c0 .75.53125.984375 1.015625.984375.625 0 1.078125-.4375 1.078125-.9375 0-.234375-.1875-.234375-.25-.234375-.1875 0-.265625.0625-.265625.234375-.015625.296875-.265625.484375-.53125.484375-.515625 0-.515625-.390625-.515625-.546875zm0 0"/></symbol><symbol id="aM" overflow="visible"><path d="m1.578125-1.28125c0-.75.546875-1.296875 1.21875-1.296875.015625.265625.203125.328125.3125.328125.1875 0 .328125-.125.328125-.328125 0-.171875-.125-.453125-.671875-.453125-.640625 0-1.015625.359375-1.1875.53125v-.203125c0-.234375-.078125-.296875-.296875-.296875h-.765625c-.09375 0-.3125 0-.3125.21875 0 .234375.21875.234375.3125.234375h.53125v2.09375h-.53125c-.09375 0-.3125 0-.3125.21875 0 .234375.21875.234375.3125.234375h1.796875c.109375 0 .296875 0 .296875-.234375 0-.21875-.1875-.21875-.296875-.21875h-.734375zm0 0"/></symbol><symbol id="aN" overflow="visible"><path d="m2.203125-3.890625c0-.203125-.171875-.375-.375-.375-.21875 0-.375.171875-.375.375 0 .21875.15625.375.375.375.203125 0 .375-.15625.375-.375zm-1.296875.890625c-.09375 0-.296875 0-.296875.21875 0 .234375.203125.234375.296875.234375h.765625v2.09375h-.8125c-.109375 0-.3125 0-.3125.21875 0 .234375.21875.234375.3125.234375h2.046875c.09375 0 .3125 0 .3125-.234375 0-.21875-.21875-.21875-.3125-.21875h-.703125v-2.25c0-.234375-.078125-.296875-.296875-.296875zm0 0"/></symbol><symbol id="aO" overflow="visible"><path d="m2.046875-1.546875.765625-1h.265625c.09375 0 .296875 0 .296875-.234375 0-.21875-.203125-.21875-.296875-.21875h-.8125c-.109375 0-.296875 0-.296875.21875 0 .234375.1875.234375.328125.234375l-.46875.625-.46875-.625c.109375 0 .3125 0 .3125-.234375 0-.21875-.203125-.21875-.3125-.21875h-.796875c-.109375 0-.3125 0-.3125.21875 0 .234375.203125.234375.3125.234375h.265625l.78125 1-.828125 1.09375h-.265625c-.109375 0-.3125 0-.3125.21875 0 .234375.21875.234375.3125.234375h.796875c.109375 0 .3125 0 .3125-.234375 0-.21875-.203125-.21875-.34375-.21875l.546875-.796875.5625.796875c-.140625 0-.328125 0-.328125.21875 0 .234375.203125.234375.296875.234375h.8125c.09375 0 .3125 0 .3125-.234375 0-.21875-.21875-.21875-.3125-.21875h-.265625zm0 0"/></symbol><symbol id="aP" overflow="visible"><path d="m2.25-4.09375c-.0625-.265625-.21875-.265625-.40625-.265625-.21875 0-.328125 0-.390625.265625l-.84375 3.640625c-.234375 0-.421875 0-.421875.21875 0 .234375.21875.234375.3125.234375h.734375c.109375 0 .3125 0 .3125-.234375 0-.21875-.1875-.21875-.390625-.21875l.140625-.640625h1.09375l.140625.640625c-.203125 0-.390625 0-.390625.21875 0 .234375.21875.234375.3125.234375h.734375c.109375 0 .3125 0 .3125-.234375 0-.21875-.1875-.21875-.421875-.21875zm.03125 2.546875h-.875c.0625-.265625.40625-1.828125.4375-2.125.015625.140625.0625.3125.09375.515625zm0 0"/></symbol><symbol id="aQ" overflow="visible"><path d="m3.03125-3.953125c0-.234375-.0625-.3125-.296875-.3125h-.515625c-.109375 0-.296875 0-.296875.234375s.1875.234375.296875.234375h.28125v1.046875c-.3125-.25-.609375-.28125-.796875-.28125-.78125 0-1.46875.640625-1.46875 1.53125 0 .859375.640625 1.53125 1.40625 1.53125.359375 0 .65625-.15625.859375-.359375 0 .203125 0 .328125.296875.328125h.515625c.109375 0 .296875 0 .296875-.234375 0-.21875-.1875-.21875-.296875-.21875h-.28125zm-.53125 2.578125c0 .40625-.3125.953125-.84375.953125-.46875 0-.890625-.46875-.890625-1.078125 0-.625.453125-1.078125.96875-1.078125.40625 0 .765625.359375.765625.734375zm0 0"/></symbol><symbol id="aR" overflow="visible"><path d="m3.234375-2.09375c0-.171875 0-.9375-.625-.9375-.21875 0-.515625.09375-.6875.328125-.140625-.25-.328125-.328125-.53125-.328125-.15625 0-.375.03125-.59375.21875-.046875-.1875-.203125-.1875-.3125-.1875h-.21875c-.109375 0-.296875 0-.296875.21875 0 .234375.15625.234375.390625.234375v2.09375c-.234375 0-.390625 0-.390625.21875 0 .234375.1875.234375.296875.234375h.609375c.109375 0 .296875 0 .296875-.234375 0-.21875-.15625-.21875-.390625-.21875v-1.21875c0-.59375.3125-.90625.578125-.90625.15625 0 .21875.15625.21875.515625v1.609375c-.0625 0-.265625 0-.265625.21875 0 .234375.1875.234375.296875.234375h.5c.09375 0 .296875 0 .296875-.234375 0-.21875-.171875-.21875-.390625-.21875v-1.21875c0-.59375.296875-.90625.578125-.90625.140625 0 .21875.15625.21875.515625v1.609375c-.078125 0-.28125 0-.28125.21875 0 .234375.203125.234375.3125.234375h.484375c.109375 0 .296875 0 .296875-.234375 0-.21875-.15625-.21875-.390625-.21875zm0 0"/></symbol><symbol id="aS" overflow="visible"><path d="m5.3125-3.671875c.078125-.03125.15625-.078125.15625-.171875s-.078125-.171875-.171875-.171875c-.015625 0-.046875 0-.140625.03125l-4.25 2.046875c-.078125.046875-.15625.09375-.15625.1875 0 .109375.078125.140625.15625.1875l4.25 2.046875c.09375.046875.125.046875.140625.046875.09375 0 .171875-.078125.171875-.171875 0-.109375-.09375-.15625-.15625-.171875l-4-1.921875zm0 0"/></symbol><symbol id="aT" overflow="visible"><path d="m5.3125-1.5625c.078125-.046875.15625-.09375.15625-.171875 0-.125-.078125-.15625-.15625-.1875l-4.25-2.046875c-.09375-.046875-.125-.046875-.140625-.046875-.09375 0-.171875.078125-.171875.171875s.09375.140625.15625.171875l4 1.921875-4 1.921875c-.078125.046875-.15625.09375-.15625.1875s.078125.171875.171875.171875c.015625 0 .046875 0 .125-.046875zm0 0"/></symbol><symbol id="aU" overflow="visible"><path d="m2.3125-1.5c0-.109375 0-.671875-.4375-.671875-.171875 0-.375.078125-.5.25-.09375-.1875-.234375-.25-.390625-.25-.09375 0-.265625.03125-.421875.15625-.03125-.125-.140625-.125-.21875-.125h-.15625c-.078125 0-.21875 0-.21875.15625 0 .171875.125.171875.28125.171875v1.484375c-.15625 0-.28125 0-.28125.15625 0 .171875.140625.171875.21875.171875h.4375c.078125 0 .21875 0 .21875-.171875 0-.15625-.125-.15625-.28125-.15625v-.875c0-.40625.21875-.640625.421875-.640625.09375 0 .140625.109375.140625.375v1.140625c-.046875 0-.1875 0-.1875.15625 0 .171875.140625.171875.21875.171875h.34375c.078125 0 .21875 0 .21875-.171875 0-.15625-.125-.15625-.28125-.15625v-.875c0-.40625.21875-.640625.421875-.640625.09375 0 .15625.109375.15625.375v1.140625c-.0625 0-.203125 0-.203125.15625 0 .171875.140625.171875.21875.171875h.34375c.078125 0 .21875 0 .21875-.171875 0-.15625-.109375-.15625-.28125-.15625zm0 0"/></symbol><symbol id="aV" overflow="visible"><path d="m1.75-3.0625c-.8125.09375-1.359375.78125-1.359375 1.5625 0 .734375.5625 1.53125 1.453125 1.53125.84375 0 1.421875-.71875 1.46875-1.453125v-.09375c0-.8125-.625-1.546875-1.484375-1.546875zm-.828125 1.59375c0-.03125-.015625-.0625-.015625-.09375 0-.5.390625-1.03125.9375-1.03125.5 0 .859375.421875.9375.953125v.0625c0 .53125-.328125 1.140625-.953125 1.140625-.546875 0-.859375-.5625-.90625-1.03125zm0 0"/></symbol><symbol id="aW" overflow="visible"><path d="m1.1875-2.734375c0-.25-.140625-.265625-.296875-.265625h-.390625c-.046875 0-.09375-.015625-.15625-.015625-.140625 0-.28125.078125-.28125.234375 0 .1875.140625.234375.28125.234375h.3125v3.625h-.34375c-.15625 0-.25.09375-.25.234375 0 .15625.09375.234375.28125.234375h1.15625c.15625 0 .28125-.078125.28125-.234375 0-.140625-.09375-.234375-.25-.234375h-.34375v-1.375c.21875.21875.515625.328125.8125.328125.8125 0 1.46875-.734375 1.46875-1.53125 0-.734375-.53125-1.546875-1.40625-1.546875-.328125 0-.59375.140625-.875.3125zm1.734375 1.3125c-.0625.515625-.421875.984375-.953125.984375-.46875 0-.78125-.515625-.78125-.921875 0-.078125 0-.171875 0-.25 0-.0625 0-.140625 0-.21875 0-.421875.453125-.75.84375-.75.546875 0 .890625.5625.890625 1.046875zm0 0"/></symbol><symbol id="aX" overflow="visible"><path d="m.921875-1.3125h2.078125c.21875 0 .28125-.109375.28125-.265625 0-.75-.421875-1.484375-1.375-1.484375-.90625 0-1.546875.734375-1.546875 1.546875 0 .9375.84375 1.546875 1.671875 1.546875.421875 0 .890625-.15625 1.125-.515625.0625-.078125.125-.1875.125-.28125v-.015625c-.015625-.140625-.140625-.1875-.28125-.1875-.234375 0-.21875.125-.296875.25-.15625.203125-.40625.296875-.65625.296875-.515625 0-1.015625-.375-1.125-.890625zm0-.453125c.125-.453125.484375-.828125.984375-.828125.46875 0 .78125.34375.8125.828125zm0 0"/></symbol><symbol id="aY" overflow="visible"><path d="m1.578125-2.5v-.203125c0-.15625-.046875-.296875-.28125-.296875h-.8125c-.140625 0-.28125.046875-.28125.21875 0 .15625.109375.234375.28125.234375h.546875v2.078125h-.578125c-.15625 0-.25.09375-.25.234375 0 .125.109375.234375.25.234375h.125 1.828125c.125-.015625.203125-.125.203125-.25 0-.140625-.109375-.21875-.28125-.21875-.046875 0-.09375 0-.140625 0h-.609375v-.78125c0-.578125.328125-1.328125 1.21875-1.328125 0 .1875.140625.328125.3125.328125.1875 0 .328125-.140625.328125-.328125 0-.390625-.4375-.46875-.6875-.46875-.46875 0-.859375.234375-1.171875.546875zm0 0"/></symbol><symbol id="aZ" overflow="visible"><path d="m1.21875-2.578125c.140625 0 .265625-.015625.40625-.015625.34375 0 .84375.140625.84375.625-.78125 0-2.109375.15625-2.109375 1.03125 0 .625.609375.96875 1.234375.96875.34375 0 .671875-.09375.953125-.28125.125.21875.46875.25.71875.25h.140625c.109375 0 .28125-.015625.28125-.21875 0-.21875-.140625-.25-.265625-.25h-.09375c-.171875 0-.3125 0-.3125-.125v-1.359375c0-.65625-.53125-1.015625-1.078125-1.09375-.125-.015625-.25-.015625-.375-.015625-.375 0-1.015625.03125-1.015625.53125 0 .1875.140625.34375.34375.34375.1875 0 .328125-.140625.328125-.328125 0-.015625 0-.046875 0-.0625zm1.25 1.0625v.53125c0 .453125-.53125.546875-.859375.546875-.265625 0-.703125-.125-.703125-.5 0-.359375.640625-.484375.90625-.53125.21875-.03125.4375-.046875.65625-.046875zm0 0"/></symbol><symbol id="a0" overflow="visible"><path d="m1.046875-3h-.609375c-.171875 0-.265625.09375-.265625.21875 0 .15625.109375.234375.265625.234375h.609375v1.578125c0 .5.28125 1 1.015625 1 .53125 0 1.09375-.34375 1.09375-.953125 0-.15625-.109375-.234375-.265625-.234375-.3125 0-.21875.265625-.3125.453125-.109375.171875-.28125.265625-.484375.265625-.421875 0-.5-.28125-.5-.5625v-1.546875h1.234375c.125-.015625.1875-.109375.1875-.234375 0-.1875-.171875-.21875-.296875-.21875h-1.125v-.609375c0-.203125-.125-.25-.265625-.25s-.28125.046875-.28125.265625zm0 0"/></symbol><symbol id="a1" overflow="visible"><path d="m.453125-2.890625c-.125.03125-.1875.125-.1875.234375s.09375.234375.265625.234375c.046875 0 .078125-.015625.109375-.015625h2.53125c.171875 0 .25-.109375.25-.21875 0-.125-.0625-.21875-.203125-.234375h-2.703125c-.015625 0-.046875 0-.0625 0zm0 1.0625c-.125.015625-.1875.109375-.1875.21875 0 .125.09375.234375.265625.234375h.109375 2.53125c.171875 0 .25-.109375.25-.234375 0-.109375-.0625-.21875-.203125-.234375h-2.703125c-.015625 0-.046875 0-.0625.015625zm0 0"/></symbol><use x="17.603" xlink:href="#a" y="17.684"/><use x="22.997748" xlink:href="#b" y="17.684"/><use x="27.783781" xlink:href="#c" y="17.684"/><use x="32.113527" xlink:href="#d" y="17.684"/><use x="40.023831" xlink:href="#e" y="17.684"/><use x="44.450214" xlink:href="#f" y="17.684"/><use x="49.042973" xlink:href="#b" y="17.684"/><use x="53.829006" xlink:href="#g" y="17.684"/><use x="56.208075" xlink:href="#h" y="17.684"/><use x="61.353758" xlink:href="#b" y="17.684"/><use x="66.149754" xlink:href="#i" y="17.684"/><use x="69.746252" xlink:href="#j" y="17.684"/><use x="72.125321" xlink:href="#k" y="17.684"/><use x="77.105625" xlink:href="#l" y="17.684"/><use x="85.568853" xlink:href="#m" y="17.684"/><use x="92.375302" xlink:href="#j" y="17.684"/><use x="94.754371" xlink:href="#i" y="17.684"/><use x="98.350869" xlink:href="#n" y="17.684"/><use x="106.814098" xlink:href="#e" y="17.684"/><use x="111.240481" xlink:href="#o" y="17.684"/><use x="115.83324" xlink:href="#p" y="17.684"/><use x="120.69997" xlink:href="#q" y="17.684"/><use x="124.103194" xlink:href="#e" y="17.684"/><use x="128.53954" xlink:href="#r" y="17.684"/><use x="132.357208" xlink:href="#r" y="17.684"/><use x="136.174876" xlink:href="#j" y="17.684"/><use x="138.553945" xlink:href="#k" y="17.684"/><use x="143.534249" xlink:href="#l" y="17.684"/><use x="151.997478" xlink:href="#i" y="17.684"/><use x="155.593976" xlink:href="#e" y="17.684"/><use x="160.02036" xlink:href="#s" y="17.684"/><use x="167.933653" xlink:href="#p" y="17.684"/><use x="173.079336" xlink:href="#g" y="17.684"/><use x="175.458404" xlink:href="#b" y="17.684"/><use x="180.244438" xlink:href="#i" y="17.684"/><use x="183.840936" xlink:href="#e" y="17.684"/><use x="188.267319" xlink:href="#r" y="17.684"/><use x="195.402533" xlink:href="#b" y="17.684"/><use x="200.188566" xlink:href="#r" y="17.684"/><use x="207.333743" xlink:href="#j" y="17.684"/><use x="209.712812" xlink:href="#l" y="17.684"/><use x="218.177" xlink:href="#x" y="17.684"/><use x="223.407365" xlink:href="#y" y="17.684"/><use x="228.63773" xlink:href="#y" y="17.684"/><use x="233.868095" xlink:href="#z" y="17.684"/><use x="239.09846" xlink:href="#A" y="17.684"/><use x="244.328825" xlink:href="#B" y="17.684"/><use x="249.55919" xlink:href="#C" y="17.684"/><use x="254.789555" xlink:href="#D" y="17.684"/><use x="260.01992" xlink:href="#E" y="17.684"/><use x="265.25" xlink:href="#t" y="17.684"/><use x="17.603" xlink:href="#H" y="27.862"/><use x="17.603" xlink:href="#I" y="45.396"/><use x="17.603" xlink:href="#I" y="51.374"/><use x="17.603" xlink:href="#J" y="57.75"/><use x="27.632" xlink:href="#R" y="36.613"/><use x="32.42" xlink:href="#V" y="38.107"/><use x="36.12518" xlink:href="#W" y="38.107"/><use x="38.183148" xlink:href="#V" y="38.107"/><path d="m.00109375.0001875h21.52734425" fill="none" stroke="#000" stroke-miterlimit="10" stroke-width=".398" transform="matrix(1 0 0 -1 24.245 48.258)"/><path d="m.0013125-.00090625v12.79687525" fill="none" stroke="#000" stroke-miterlimit="10" stroke-width=".398" transform="matrix(1 0 0 -1 24.444 61.253)"/><use x="27.632" xlink:href="#R" y="55.874"/><use x="32.42" xlink:href="#X" y="57.368"/><use x="36.12518" xlink:href="#W" y="57.368"/><use x="38.183148" xlink:href="#V" y="57.368"/><path d="m.00021875-.00090625v12.79687525" fill="none" stroke="#000" stroke-miterlimit="10" stroke-width=".398" transform="matrix(1 0 0 -1 45.574 61.253)"/><path d="m.00109375-.001125h21.52734425" fill="none" stroke="#000" stroke-miterlimit="10" stroke-width=".398" transform="matrix(1 0 0 -1 24.245 61.452)"/><use x="56.289" xlink:href="#u" y="48.9"/><use x="60.163" xlink:href="#u" y="51.889"/><use x="64.037" xlink:href="#u" y="54.877"/><use x="77.32" xlink:href="#R" y="72.112"/><use x="82.107" xlink:href="#ac" y="73.606"/><use x="85.483" xlink:href="#W" y="73.606"/><use x="87.541" xlink:href="#ac" y="73.606"/><use x="91.415" xlink:href="#K" y="27.862"/><use x="91.415" xlink:href="#L" y="45.396"/><use x="91.415" xlink:href="#L" y="51.374"/><use x="91.415" xlink:href="#M" y="57.75"/><use x="17.603" xlink:href="#N" y="80.78"/><path d="m22.085938 80.777344h31.261718v-1.191406h-31.261718zm0 0"/><use x="53.347" xlink:href="#O" y="80.779"/><use x="57.83017" xlink:href="#P" y="80.779"/><path d="m62.3125 80.777344h31.261719v-1.191406h-31.261719zm0 0"/><use x="93.574" xlink:href="#Q" y="80.779"/><use x="52.212" xlink:href="#S" y="89.857"/><use x="60.304" xlink:href="#ae" y="90.853"/><use x="99.717" xlink:href="#ah" y="53.864"/><use x="109.126" xlink:href="#H" y="27.862"/><use x="109.126" xlink:href="#I" y="45.396"/><use x="109.126" xlink:href="#I" y="51.374"/><use x="109.126" xlink:href="#J" y="57.75"/><use x="119.156" xlink:href="#T" y="36.613"/><use x="124.303" xlink:href="#V" y="38.107"/><use x="128.00818" xlink:href="#W" y="38.107"/><use x="130.066148" xlink:href="#V" y="38.107"/><path d="m.00153125.001375h21.88671875" fill="none" stroke="#000" stroke-miterlimit="10" stroke-width=".398" transform="matrix(1 0 0 -1 115.768 45.767)"/><path d="m.00175-.00090625v15.28515625" fill="none" stroke="#000" stroke-miterlimit="10" stroke-width=".398" transform="matrix(1 0 0 -1 115.967 61.253)"/><use x="119.156" xlink:href="#T" y="55.874"/><use x="124.303" xlink:href="#X" y="57.368"/><use x="128.00818" xlink:href="#W" y="57.368"/><use x="130.066148" xlink:href="#V" y="57.368"/><path d="m.00003125-.00090625v15.28515625" fill="none" stroke="#000" stroke-miterlimit="10" stroke-width=".398" transform="matrix(1 0 0 -1 137.457 61.253)"/><path d="m.00153125-.001125h21.88671875" fill="none" stroke="#000" stroke-miterlimit="10" stroke-width=".398" transform="matrix(1 0 0 -1 115.768 61.452)"/><use x="148.173" xlink:href="#u" y="48.9"/><use x="152.046" xlink:href="#u" y="51.889"/><use x="155.92" xlink:href="#u" y="54.877"/><use x="169.203" xlink:href="#T" y="72.112"/><use x="174.35" xlink:href="#ac" y="73.606"/><use x="177.726" xlink:href="#W" y="73.606"/><use x="179.784" xlink:href="#ac" y="73.606"/><use x="183.658" xlink:href="#K" y="27.862"/><use x="183.658" xlink:href="#L" y="45.396"/><use x="183.658" xlink:href="#L" y="51.374"/><use x="183.658" xlink:href="#M" y="57.75"/><use x="109.126" xlink:href="#N" y="80.78"/><path d="m113.609375 80.777344h31.621094v-1.191406h-31.621094zm0 0"/><use x="145.23" xlink:href="#O" y="80.779"/><use x="149.71317" xlink:href="#P" y="80.779"/><path d="m154.195312 80.777344h31.621094v-1.191406h-31.621094zm0 0"/><use x="185.817" xlink:href="#Q" y="80.779"/><use x="143.654" xlink:href="#S" y="89.857"/><use x="151.569" xlink:href="#X" y="91.351"/><use x="17.603" xlink:href="#N" y="96.532"/><path d="m22.085938 96.53125h77.382812v-1.195312h-77.382812zm0 0"/><use x="99.468" xlink:href="#O" y="96.531"/><use x="103.95117" xlink:href="#P" y="96.531"/><path d="m108.433594 96.53125h77.382812v-1.195312h-77.382812zm0 0"/><use x="185.817" xlink:href="#Q" y="96.531"/><use x="29.383" xlink:href="#Y" y="106.411"/><use x="32.265" xlink:href="#ad" y="106.411"/><use x="38.149" xlink:href="#ae" y="107.407"/><use x="41.293" xlink:href="#Z" y="106.411"/><use x="47.056" xlink:href="#ad" y="106.411"/><use x="52.941" xlink:href="#af" y="107.407"/><use x="56.085" xlink:href="#aa" y="106.411"/><use x="61.542" xlink:href="#aj" y="106.411"/><use x="63.381688" xlink:href="#ak" y="106.411"/><use x="68.916096" xlink:href="#al" y="106.411"/><use x="74.354265" xlink:href="#am" y="106.411"/><use x="80.066505" xlink:href="#an" y="106.411"/><use x="87.923188" xlink:href="#ao" y="106.411"/><use x="91.363364" xlink:href="#ap" y="106.411"/><use x="95.072728" xlink:href="#aq" y="106.411"/><use x="98.928542" xlink:href="#ao" y="106.411"/><use x="102.361744" xlink:href="#ar" y="106.411"/><use x="104.998537" xlink:href="#as" y="106.411"/><use x="106.8452" xlink:href="#at" y="106.411"/><use x="112.97517" xlink:href="#ao" y="106.411"/><use x="116.408372" xlink:href="#au" y="106.411"/><use x="119.96501" xlink:href="#ap" y="106.411"/><use x="123.674374" xlink:href="#as" y="106.411"/><use x="125.514062" xlink:href="#av" y="106.411"/><use x="129.499589" xlink:href="#ap" y="106.411"/><use x="133.208953" xlink:href="#aw" y="106.411"/><use x="135.998473" xlink:href="#ao" y="106.411"/><use x="139.431675" xlink:href="#ax" y="106.411"/><use x="145.990534" xlink:href="#ay" y="106.411"/><use x="149.97606" xlink:href="#av" y="106.411"/><use x="153.961587" xlink:href="#aw" y="106.411"/><use x="159.331413" xlink:href="#ar" y="106.411"/><use x="161.968207" xlink:href="#ap" y="106.411"/><use x="165.677571" xlink:href="#aw" y="106.411"/><use x="168.467091" xlink:href="#az" y="106.411"/><use x="172.452618" xlink:href="#ao" y="106.411"/><use x="175.88582" xlink:href="#ar" y="106.411"/><use x="23.041" xlink:href="#ay" y="116.042"/><use x="27.242715" xlink:href="#ao" y="116.042"/><use x="30.675916" xlink:href="#aA" y="116.042"/><use x="34.109118" xlink:href="#aB" y="116.042"/><use x="37.971906" xlink:href="#aC" y="116.042"/><use x="44.103271" xlink:href="#ao" y="116.042"/><use x="47.536473" xlink:href="#ak" y="116.042"/><use x="53.07088" xlink:href="#ao" y="116.042"/><use x="56.504082" xlink:href="#aD" y="116.042"/><use x="60.06072" xlink:href="#aE" y="116.042"/><use x="63.830059" xlink:href="#ar" y="116.042"/><use x="66.466853" xlink:href="#ao" y="116.042"/><use x="69.900054" xlink:href="#ak" y="116.042"/><use x="72.86113" xlink:href="#ak" y="116.042"/><use x="75.822205" xlink:href="#aj" y="116.042"/><use x="77.661894" xlink:href="#aB" y="116.042"/><use x="81.524682" xlink:href="#aF" y="116.042"/><use x="88.088" xlink:href="#aH" y="116.042"/><use x="91.79318" xlink:href="#aI" y="116.042"/><use x="95.49836" xlink:href="#aJ" y="116.042"/><use x="99.20354" xlink:href="#aK" y="116.042"/><use x="102.90872" xlink:href="#aL" y="116.042"/><use x="106.6139" xlink:href="#aM" y="116.042"/><use x="110.31908" xlink:href="#aN" y="116.042"/><use x="114.02426" xlink:href="#aO" y="116.042"/><use x="117.72944" xlink:href="#aP" y="116.042"/><use x="121.434619" xlink:href="#aQ" y="116.042"/><use x="125.139799" xlink:href="#aQ" y="116.042"/><use x="128.842" xlink:href="#aS" y="116.042"/><use x="135.069" xlink:href="#aI" y="116.042"/><use x="138.774" xlink:href="#aU" y="117.038"/><use x="141.42" xlink:href="#ae" y="118.591"/><use x="145.063" xlink:href="#W" y="116.042"/><use x="147.121" xlink:href="#aI" y="116.042"/><use x="150.826" xlink:href="#aU" y="117.038"/><use x="153.472" xlink:href="#af" y="118.591"/><use x="157.115" xlink:href="#aT" y="116.042"/><use x="163.342" xlink:href="#Y" y="116.042"/><use x="166.223" xlink:href="#aR" y="116.042"/><use x="169.928" xlink:href="#ae" y="117.038"/><use x="173.073" xlink:href="#W" y="116.042"/><use x="175.131" xlink:href="#aR" y="116.042"/><use x="178.836" xlink:href="#af" y="117.038"/><use x="181.98" xlink:href="#aa" y="116.042"/><use x="192.514" xlink:href="#ah" y="53.864"/><use x="202.476" xlink:href="#H" y="27.862"/><use x="202.476" xlink:href="#I" y="45.396"/><use x="202.476" xlink:href="#I" y="51.374"/><use x="202.476" xlink:href="#J" y="57.75"/><use x="212.505" xlink:href="#U" y="36.613"/><use x="216.933" xlink:href="#V" y="38.107"/><use x="220.63818" xlink:href="#W" y="38.107"/><use x="222.696148" xlink:href="#V" y="38.107"/><path d="m-.0008125.0001875h21.1679685" fill="none" stroke="#000" stroke-miterlimit="10" stroke-width=".398" transform="matrix(1 0 0 -1 209.118 48.258)"/><path d="m-.00059375-.00090625v12.79687525" fill="none" stroke="#000" stroke-miterlimit="10" stroke-width=".398" transform="matrix(1 0 0 -1 209.317 61.253)"/><use x="212.505" xlink:href="#U" y="55.874"/><use x="216.933" xlink:href="#X" y="57.368"/><use x="220.63818" xlink:href="#W" y="57.368"/><use x="222.696148" xlink:href="#V" y="57.368"/><path d="m.00184375-.00090625v12.79687525" fill="none" stroke="#000" stroke-miterlimit="10" stroke-width=".398" transform="matrix(1 0 0 -1 230.088 61.253)"/><path d="m-.0008125-.001125h21.1679685" fill="none" stroke="#000" stroke-miterlimit="10" stroke-width=".398" transform="matrix(1 0 0 -1 209.118 61.452)"/><use x="240.803" xlink:href="#u" y="48.9"/><use x="244.677" xlink:href="#u" y="51.889"/><use x="248.55" xlink:href="#u" y="54.877"/><use x="261.833" xlink:href="#U" y="72.112"/><use x="266.261" xlink:href="#ac" y="73.606"/><use x="269.637" xlink:href="#W" y="73.606"/><use x="271.695" xlink:href="#ac" y="73.606"/><use x="275.569" xlink:href="#K" y="27.862"/><use x="275.569" xlink:href="#L" y="45.396"/><use x="275.569" xlink:href="#L" y="51.374"/><use x="275.569" xlink:href="#M" y="57.75"/><use x="202.476" xlink:href="#N" y="80.78"/><path d="m206.960938 80.777344h30.898437v-1.191406h-30.898437zm0 0"/><use x="237.86" xlink:href="#O" y="80.779"/><use x="242.34317" xlink:href="#P" y="80.779"/><path d="m246.828125 80.777344h30.898437v-1.191406h-30.898437zm0 0"/><use x="277.727" xlink:href="#Q" y="80.779"/><use x="236.285" xlink:href="#S" y="89.857"/><use x="244.199" xlink:href="#ab" y="91.351"/><use x="17.603" xlink:href="#N" y="123.772"/><path d="m22.085938 123.773438h123.335937v-1.195313h-123.335937zm0 0"/><use x="145.424" xlink:href="#O" y="123.772"/><use x="149.90717" xlink:href="#P" y="123.772"/><path d="m154.390625 123.773438h123.335937v-1.195313h-123.335937zm0 0"/><use x="277.727" xlink:href="#Q" y="123.772"/><use x="27.945" xlink:href="#Y" y="133.651"/><use x="30.826" xlink:href="#ad" y="133.651"/><use x="36.71" xlink:href="#ae" y="134.648"/><use x="39.855" xlink:href="#Z" y="133.651"/><use x="45.618" xlink:href="#ad" y="133.651"/><use x="51.502" xlink:href="#af" y="134.648"/><use x="54.647" xlink:href="#Z" y="133.651"/><use x="60.41" xlink:href="#ad" y="133.651"/><use x="66.294" xlink:href="#ag" y="134.648"/><use x="69.439" xlink:href="#aa" y="133.651"/><use x="74.895" xlink:href="#aj" y="133.651"/><use x="76.734688" xlink:href="#ak" y="133.651"/><use x="82.269096" xlink:href="#ap" y="133.651"/><use x="85.97846" xlink:href="#as" y="133.651"/><use x="87.818149" xlink:href="#ak" y="133.651"/><use x="90.779224" xlink:href="#aB" y="133.651"/><use x="97.222318" xlink:href="#al" y="133.651"/><use x="102.660487" xlink:href="#am" y="133.651"/><use x="108.372727" xlink:href="#an" y="133.651"/><use x="116.22941" xlink:href="#ao" y="133.651"/><use x="119.662612" xlink:href="#ap" y="133.651"/><use x="123.371976" xlink:href="#aq" y="133.651"/><use x="127.234764" xlink:href="#ao" y="133.651"/><use x="130.667965" xlink:href="#ar" y="133.651"/><use x="133.304759" xlink:href="#as" y="133.651"/><use x="135.144448" xlink:href="#at" y="133.651"/><use x="141.274418" xlink:href="#ao" y="133.651"/><use x="144.70762" xlink:href="#au" y="133.651"/><use x="148.264258" xlink:href="#ap" y="133.651"/><use x="151.973622" xlink:href="#as" y="133.651"/><use x="153.81331" xlink:href="#av" y="133.651"/><use x="157.798837" xlink:href="#ap" y="133.651"/><use x="161.508201" xlink:href="#aw" y="133.651"/><use x="164.297721" xlink:href="#ao" y="133.651"/><use x="167.730923" xlink:href="#ax" y="133.651"/><use x="174.296756" xlink:href="#ay" y="133.651"/><use x="178.282282" xlink:href="#av" y="133.651"/><use x="182.267809" xlink:href="#aw" y="133.651"/><use x="187.630661" xlink:href="#ar" y="133.651"/><use x="190.267455" xlink:href="#ap" y="133.651"/><use x="193.976819" xlink:href="#aw" y="133.651"/><use x="196.766339" xlink:href="#az" y="133.651"/><use x="200.751866" xlink:href="#ao" y="133.651"/><use x="204.185068" xlink:href="#ar" y="133.651"/><use x="209.395194" xlink:href="#ay" y="133.651"/><use x="213.596908" xlink:href="#ao" y="133.651"/><use x="217.03011" xlink:href="#aA" y="133.651"/><use x="220.463312" xlink:href="#aB" y="133.651"/><use x="224.326099" xlink:href="#aC" y="133.651"/><use x="230.457464" xlink:href="#ao" y="133.651"/><use x="233.890666" xlink:href="#ak" y="133.651"/><use x="239.425074" xlink:href="#ao" y="133.651"/><use x="242.858276" xlink:href="#aD" y="133.651"/><use x="246.414914" xlink:href="#aE" y="133.651"/><use x="250.191226" xlink:href="#ar" y="133.651"/><use x="252.82802" xlink:href="#ao" y="133.651"/><use x="256.261222" xlink:href="#ak" y="133.651"/><use x="259.222297" xlink:href="#ak" y="133.651"/><use x="262.183373" xlink:href="#aj" y="133.651"/><use x="264.023061" xlink:href="#aB" y="133.651"/><use x="267.885849" xlink:href="#aF" y="133.651"/><use x="23.928" xlink:href="#aH" y="143.282"/><use x="27.63318" xlink:href="#aI" y="143.282"/><use x="31.33836" xlink:href="#aJ" y="143.282"/><use x="35.04354" xlink:href="#aK" y="143.282"/><use x="38.74872" xlink:href="#aL" y="143.282"/><use x="42.4539" xlink:href="#aM" y="143.282"/><use x="46.15908" xlink:href="#aN" y="143.282"/><use x="49.86426" xlink:href="#aO" y="143.282"/><use x="53.56944" xlink:href="#aP" y="143.282"/><use x="57.274619" xlink:href="#aQ" y="143.282"/><use x="60.979799" xlink:href="#aQ" y="143.282"/><use x="64.682" xlink:href="#aS" y="143.282"/><use x="70.909" xlink:href="#aH" y="143.282"/><use x="74.61418" xlink:href="#aI" y="143.282"/><use x="78.31936" xlink:href="#aJ" y="143.282"/><use x="82.02454" xlink:href="#aK" y="143.282"/><use x="85.72972" xlink:href="#aL" y="143.282"/><use x="89.4349" xlink:href="#aM" y="143.282"/><use x="93.14008" xlink:href="#aN" y="143.282"/><use x="96.84526" xlink:href="#aO" y="143.282"/><use x="100.55044" xlink:href="#aP" y="143.282"/><use x="104.255619" xlink:href="#aQ" y="143.282"/><use x="107.960799" xlink:href="#aQ" y="143.282"/><use x="111.663" xlink:href="#aS" y="143.282"/><use x="117.889" xlink:href="#aI" y="143.282"/><use x="121.594" xlink:href="#aU" y="144.278"/><use x="124.241" xlink:href="#ae" y="145.831"/><use x="127.883" xlink:href="#W" y="143.282"/><use x="129.942" xlink:href="#aI" y="143.282"/><use x="133.646" xlink:href="#aU" y="144.278"/><use x="136.293" xlink:href="#af" y="145.831"/><use x="139.935" xlink:href="#aT" y="143.282"/><use x="146.162" xlink:href="#W" y="143.282"/><use x="148.22" xlink:href="#aI" y="143.282"/><use x="151.925" xlink:href="#aU" y="144.278"/><use x="154.572" xlink:href="#af" y="145.831"/><use x="158.214" xlink:href="#aT" y="143.282"/><use x="164.441" xlink:href="#Y" y="143.282"/><use x="167.322" xlink:href="#aH" y="143.282"/><use x="171.02718" xlink:href="#aI" y="143.282"/><use x="174.73236" xlink:href="#aJ" y="143.282"/><use x="178.43754" xlink:href="#aK" y="143.282"/><use x="182.14272" xlink:href="#aL" y="143.282"/><use x="185.8479" xlink:href="#aM" y="143.282"/><use x="189.55308" xlink:href="#aN" y="143.282"/><use x="193.25826" xlink:href="#aO" y="143.282"/><use x="196.96344" xlink:href="#aP" y="143.282"/><use x="200.668619" xlink:href="#aQ" y="143.282"/><use x="204.373799" xlink:href="#aQ" y="143.282"/><use x="208.076" xlink:href="#aS" y="143.282"/><use x="214.303" xlink:href="#aI" y="143.282"/><use x="218.008" xlink:href="#aU" y="144.278"/><use x="220.654" xlink:href="#ae" y="145.831"/><use x="224.297" xlink:href="#W" y="143.282"/><use x="226.355" xlink:href="#aI" y="143.282"/><use x="230.06" xlink:href="#aU" y="144.278"/><use x="232.706" xlink:href="#af" y="145.831"/><use x="236.349" xlink:href="#aT" y="143.282"/><use x="242.576" xlink:href="#Y" y="143.282"/><use x="245.457" xlink:href="#aR" y="143.282"/><use x="249.162" xlink:href="#ae" y="144.278"/><use x="252.307" xlink:href="#W" y="143.282"/><use x="254.365" xlink:href="#aR" y="143.282"/><use x="258.07" xlink:href="#af" y="144.278"/><use x="261.214" xlink:href="#aa" y="143.282"/><use x="264.095574" xlink:href="#W" y="143.282"/><use x="266.154" xlink:href="#aR" y="143.282"/><use x="269.859" xlink:href="#ag" y="144.278"/><use x="273.004" xlink:href="#aa" y="143.282"/><use x="9.854" xlink:href="#ai" y="178.525"/><use x="19.897" xlink:href="#H" y="152.522"/><use x="19.897" xlink:href="#I" y="170.057"/><use x="19.897" xlink:href="#I" y="176.034"/><use x="19.897" xlink:href="#J" y="182.41"/><use x="29.926" xlink:href="#R" y="161.273"/><use x="34.714" xlink:href="#V" y="162.768"/><use x="38.41918" xlink:href="#W" y="162.768"/><use x="40.477148" xlink:href="#V" y="162.768"/><use x="46.894" xlink:href="#ah" y="161.273"/><use x="56.856" xlink:href="#T" y="161.273"/><use x="62.004" xlink:href="#V" y="162.768"/><use x="65.70918" xlink:href="#W" y="162.768"/><use x="67.767148" xlink:href="#V" y="162.768"/><use x="74.184" xlink:href="#ah" y="161.273"/><use x="84.146" xlink:href="#U" y="161.273"/><use x="88.574" xlink:href="#V" y="162.768"/><use x="92.27918" xlink:href="#W" y="162.768"/><use x="94.337148" xlink:href="#V" y="162.768"/><path d="m.0000625-.0016875h75.3906245" fill="none" stroke="#000" stroke-miterlimit="10" stroke-width=".398" transform="matrix(1 0 0 -1 26.539 170.428)"/><path d="m.00028125-.0010625v15.2851565" fill="none" stroke="#000" stroke-miterlimit="10" stroke-width=".398" transform="matrix(1 0 0 -1 26.738 185.913)"/><use x="29.926" xlink:href="#R" y="180.534"/><use x="34.714" xlink:href="#X" y="182.029"/><use x="38.41918" xlink:href="#W" y="182.029"/><use x="40.477148" xlink:href="#V" y="182.029"/><use x="46.894" xlink:href="#ah" y="180.534"/><use x="56.856" xlink:href="#T" y="180.534"/><use x="62.004" xlink:href="#X" y="182.029"/><use x="65.70918" xlink:href="#W" y="182.029"/><use x="67.767148" xlink:href="#V" y="182.029"/><use x="74.184" xlink:href="#ah" y="180.534"/><use x="84.147" xlink:href="#U" y="180.534"/><use x="88.574" xlink:href="#X" y="182.029"/><use x="92.27918" xlink:href="#W" y="182.029"/><use x="94.337148" xlink:href="#V" y="182.029"/><path d="m.00146875-.0010625v15.2851565" fill="none" stroke="#000" stroke-miterlimit="10" stroke-width=".398" transform="matrix(1 0 0 -1 101.729 185.913)"/><path d="m.0000625-.00028125h75.3906245" fill="none" stroke="#000" stroke-miterlimit="10" stroke-width=".398" transform="matrix(1 0 0 -1 26.539 186.113)"/><use x="136.514" xlink:href="#u" y="173.56"/><use x="140.388" xlink:href="#u" y="176.549"/><use x="144.261" xlink:href="#u" y="179.538"/><use x="241.376" xlink:href="#K" y="152.522"/><use x="241.376" xlink:href="#L" y="170.057"/><use x="241.376" xlink:href="#L" y="176.034"/><use x="241.376" xlink:href="#M" y="182.41"/><use x="19.897" xlink:href="#N" y="205.44"/><path d="m24.378906 205.441406h105.09375v-1.195312h-105.09375zm0 0"/><use x="129.474" xlink:href="#O" y="205.44"/><use x="133.95717" xlink:href="#P" y="205.44"/><path d="m138.441406 205.441406h105.09375v-1.195312h-105.09375zm0 0"/><use x="243.534" xlink:href="#Q" y="205.44"/><use x="19.263" xlink:href="#Y" y="215.32"/><use x="22.145" xlink:href="#ad" y="215.32"/><use x="28.029" xlink:href="#ae" y="216.316"/><use x="31.174" xlink:href="#Z" y="215.32"/><use x="36.937" xlink:href="#ad" y="215.32"/><use x="42.821" xlink:href="#af" y="216.316"/><use x="45.966" xlink:href="#Z" y="215.32"/><use x="51.729" xlink:href="#ad" y="215.32"/><use x="57.613" xlink:href="#ag" y="216.316"/><use x="60.758" xlink:href="#aa" y="215.32"/><use x="66.214" xlink:href="#aj" y="215.32"/><use x="68.053688" xlink:href="#ak" y="215.32"/><use x="73.588096" xlink:href="#ao" y="215.32"/><use x="77.021298" xlink:href="#au" y="215.32"/><use x="80.577936" xlink:href="#ap" y="215.32"/><use x="84.2873" xlink:href="#as" y="215.32"/><use x="86.126989" xlink:href="#av" y="215.32"/><use x="90.112515" xlink:href="#ap" y="215.32"/><use x="93.821879" xlink:href="#aw" y="215.32"/><use x="96.611399" xlink:href="#ao" y="215.32"/><use x="100.051575" xlink:href="#ax" y="215.32"/><use x="106.610434" xlink:href="#aB" y="215.32"/><use x="110.473222" xlink:href="#aF" y="215.32"/><use x="114.458748" xlink:href="#as" y="215.32"/><use x="116.298437" xlink:href="#at" y="215.32"/><use x="122.428407" xlink:href="#aG" y="215.32"/><use x="127.701995" xlink:href="#az" y="215.32"/><use x="131.687521" xlink:href="#ao" y="215.32"/><use x="135.120723" xlink:href="#aF" y="215.32"/><use x="141.682" xlink:href="#aV" y="215.32"/><use x="145.385785" xlink:href="#aW" y="215.32"/><use x="149.08957" xlink:href="#aX" y="215.32"/><use x="152.793356" xlink:href="#aY" y="215.32"/><use x="156.497141" xlink:href="#aZ" y="215.32"/><use x="160.200926" xlink:href="#a0" y="215.32"/><use x="163.904711" xlink:href="#aV" y="215.32"/><use x="167.608496" xlink:href="#aY" y="215.32"/><use x="171.312281" xlink:href="#a1" y="215.32"/><use x="177.593" xlink:href="#aj" y="215.32"/><use x="179.432688" xlink:href="#ak" y="215.32"/><use x="184.967096" xlink:href="#aA" y="215.32"/><use x="188.400298" xlink:href="#ap" y="215.32"/><use x="192.109662" xlink:href="#as" y="215.32"/><use x="193.949351" xlink:href="#as" y="215.32"/><use x="195.789039" xlink:href="#ao" y="215.32"/><use x="199.222241" xlink:href="#ax" y="215.32"/><use x="205.788073" xlink:href="#aB" y="215.32"/><use x="209.650861" xlink:href="#aF" y="215.32"/><use x="216.20972" xlink:href="#ao" y="215.32"/><use x="219.642922" xlink:href="#aD" y="215.32"/><use x="223.19956" xlink:href="#aE" y="215.32"/><use x="226.968899" xlink:href="#ar" y="215.32"/><use x="229.605693" xlink:href="#ao" y="215.32"/><use x="233.038894" xlink:href="#ak" y="215.32"/><use x="235.99997" xlink:href="#ak" y="215.32"/><use x="238.961045" xlink:href="#aj" y="215.32"/><use x="240.800734" xlink:href="#aB" y="215.32"/><use x="244.663522" xlink:href="#aF" y="215.32"/><use x="315.871" xlink:href="#v" y="17.684"/><use x="321.819668" xlink:href="#b" y="17.684"/><use x="326.605702" xlink:href="#w" y="17.684"/><use x="331.586005" xlink:href="#e" y="17.684"/><use x="336.012388" xlink:href="#q" y="17.684"/><use x="342.733158" xlink:href="#e" y="17.684"/><use x="347.159542" xlink:href="#f" y="17.684"/><use x="351.7523" xlink:href="#b" y="17.684"/><use x="356.538333" xlink:href="#g" y="17.684"/><use x="358.917402" xlink:href="#h" y="17.684"/><use x="364.063085" xlink:href="#b" y="17.684"/><use x="368.849118" xlink:href="#i" y="17.684"/><use x="372.455579" xlink:href="#j" y="17.684"/><use x="374.834648" xlink:href="#k" y="17.684"/><use x="379.814952" xlink:href="#l" y="17.684"/><use x="388.278181" xlink:href="#m" y="17.684"/><use x="395.084629" xlink:href="#j" y="17.684"/><use x="397.463698" xlink:href="#i" y="17.684"/><use x="401.060196" xlink:href="#n" y="17.684"/><use x="406.205879" xlink:href="#k" y="17.684"/><use x="411.186183" xlink:href="#h" y="17.684"/><use x="416.331866" xlink:href="#i" y="17.684"/><use x="423.24591" xlink:href="#e" y="17.684"/><use x="427.672293" xlink:href="#o" y="17.684"/><use x="432.265052" xlink:href="#p" y="17.684"/><use x="437.131782" xlink:href="#q" y="17.684"/><use x="440.535006" xlink:href="#e" y="17.684"/><use x="444.971352" xlink:href="#r" y="17.684"/><use x="448.78902" xlink:href="#r" y="17.684"/><use x="452.606689" xlink:href="#j" y="17.684"/><use x="454.985758" xlink:href="#k" y="17.684"/><use x="459.966061" xlink:href="#l" y="17.684"/><use x="468.42929" xlink:href="#i" y="17.684"/><use x="472.025789" xlink:href="#e" y="17.684"/><use x="476.452172" xlink:href="#s" y="17.684"/><use x="484.365465" xlink:href="#p" y="17.684"/><use x="489.511148" xlink:href="#g" y="17.684"/><use x="491.890217" xlink:href="#b" y="17.684"/><use x="496.67625" xlink:href="#i" y="17.684"/><use x="500.272748" xlink:href="#e" y="17.684"/><use x="504.699132" xlink:href="#r" y="17.684"/><use x="511.834346" xlink:href="#b" y="17.684"/><use x="516.620379" xlink:href="#r" y="17.684"/><use x="523.765556" xlink:href="#j" y="17.684"/><use x="526.144624" xlink:href="#l" y="17.684"/><use x="534.609" xlink:href="#F" y="17.684"/><use x="539.839365" xlink:href="#G" y="17.684"/><use x="545.06973" xlink:href="#z" y="17.684"/><use x="550.300095" xlink:href="#A" y="17.684"/><use x="555.53046" xlink:href="#B" y="17.684"/><use x="560.760825" xlink:href="#C" y="17.684"/><use x="565.99119" xlink:href="#D" y="17.684"/><use x="571.221555" xlink:href="#E" y="17.684"/><use x="576.451" xlink:href="#t" y="17.684"/><use x="317.532" xlink:href="#H" y="27.862"/><use x="317.532" xlink:href="#I" y="45.396"/><use x="317.532" xlink:href="#I" y="51.374"/><use x="317.532" xlink:href="#J" y="57.75"/><use x="327.561" xlink:href="#R" y="36.613"/><use x="332.348" xlink:href="#V" y="38.107"/><use x="336.05318" xlink:href="#W" y="38.107"/><use x="338.111148" xlink:href="#V" y="38.107"/><path d="m-.001125.0001875h21.527344" fill="none" stroke="#000" stroke-miterlimit="10" stroke-width=".398" transform="matrix(1 0 0 -1 324.173 48.258)"/><path d="m-.00190625-.00090625v12.79687525" fill="none" stroke="#000" stroke-miterlimit="10" stroke-width=".398" transform="matrix(1 0 0 -1 324.373 61.253)"/><use x="327.561" xlink:href="#R" y="55.874"/><use x="332.348" xlink:href="#X" y="57.368"/><use x="336.05318" xlink:href="#W" y="57.368"/><use x="338.111148" xlink:href="#V" y="57.368"/><path d="m.00090625-.00090625v12.79687525" fill="none" stroke="#000" stroke-miterlimit="10" stroke-width=".398" transform="matrix(1 0 0 -1 345.503 61.253)"/><path d="m-.001125-.001125h21.527344" fill="none" stroke="#000" stroke-miterlimit="10" stroke-width=".398" transform="matrix(1 0 0 -1 324.173 61.452)"/><use x="356.218" xlink:href="#u" y="48.9"/><use x="360.092" xlink:href="#u" y="51.889"/><use x="363.965" xlink:href="#u" y="54.877"/><use x="377.248" xlink:href="#R" y="72.112"/><use x="382.036" xlink:href="#ac" y="73.606"/><use x="385.412" xlink:href="#W" y="73.606"/><use x="387.47" xlink:href="#ac" y="73.606"/><use x="391.344" xlink:href="#K" y="27.862"/><use x="391.344" xlink:href="#L" y="45.396"/><use x="391.344" xlink:href="#L" y="51.374"/><use x="391.344" xlink:href="#M" y="57.75"/><use x="317.532" xlink:href="#N" y="80.78"/><path d="m322.015625 80.777344h31.257813v-1.191406h-31.257813zm0 0"/><use x="353.275" xlink:href="#O" y="80.779"/><use x="357.75817" xlink:href="#P" y="80.779"/><path d="m362.242188 80.777344h31.261718v-1.191406h-31.261718zm0 0"/><use x="393.502" xlink:href="#Q" y="80.779"/><use x="352.14" xlink:href="#S" y="89.857"/><use x="360.232" xlink:href="#ae" y="90.853"/><use x="399.646" xlink:href="#ah" y="53.864"/><use x="409.055" xlink:href="#H" y="27.862"/><use x="409.055" xlink:href="#I" y="45.396"/><use x="409.055" xlink:href="#I" y="51.374"/><use x="409.055" xlink:href="#J" y="57.75"/><use x="419.084" xlink:href="#T" y="36.613"/><use x="424.231" xlink:href="#V" y="38.107"/><use x="427.93618" xlink:href="#W" y="38.107"/><use x="429.994148" xlink:href="#V" y="38.107"/><path d="m-.0016875.001375h21.8906245" fill="none" stroke="#000" stroke-miterlimit="10" stroke-width=".398" transform="matrix(1 0 0 -1 415.697 45.767)"/><path d="m-.00146875-.00090625v15.28515625" fill="none" stroke="#000" stroke-miterlimit="10" stroke-width=".398" transform="matrix(1 0 0 -1 415.896 61.253)"/><use x="419.084" xlink:href="#T" y="55.874"/><use x="424.231" xlink:href="#X" y="57.368"/><use x="427.93618" xlink:href="#W" y="57.368"/><use x="429.994148" xlink:href="#V" y="57.368"/><path d="m.00071875-.00090625v15.28515625" fill="none" stroke="#000" stroke-miterlimit="10" stroke-width=".398" transform="matrix(1 0 0 -1 437.386 61.253)"/><path d="m-.0016875-.001125h21.8906245" fill="none" stroke="#000" stroke-miterlimit="10" stroke-width=".398" transform="matrix(1 0 0 -1 415.697 61.452)"/><use x="448.101" xlink:href="#u" y="48.9"/><use x="451.975" xlink:href="#u" y="51.889"/><use x="455.848" xlink:href="#u" y="54.877"/><use x="469.131" xlink:href="#T" y="72.112"/><use x="474.279" xlink:href="#ac" y="73.606"/><use x="477.654" xlink:href="#W" y="73.606"/><use x="479.713" xlink:href="#ac" y="73.606"/><use x="483.587" xlink:href="#K" y="27.862"/><use x="483.587" xlink:href="#L" y="45.396"/><use x="483.587" xlink:href="#L" y="51.374"/><use x="483.587" xlink:href="#M" y="57.75"/><use x="409.055" xlink:href="#N" y="80.78"/><path d="m413.539062 80.777344h31.617188v-1.191406h-31.617188zm0 0"/><use x="445.158" xlink:href="#O" y="80.779"/><use x="449.64117" xlink:href="#P" y="80.779"/><path d="m454.125 80.777344h31.621094v-1.191406h-31.621094zm0 0"/><use x="485.745" xlink:href="#Q" y="80.779"/><use x="443.583" xlink:href="#S" y="89.857"/><use x="451.498" xlink:href="#X" y="91.351"/><use x="491.889" xlink:href="#ah" y="53.864"/><use x="501.298" xlink:href="#H" y="27.862"/><use x="501.298" xlink:href="#I" y="45.396"/><use x="501.298" xlink:href="#I" y="51.374"/><use x="501.298" xlink:href="#J" y="57.75"/><use x="507.94" xlink:href="#U" y="37.26"/><use x="512.368" xlink:href="#V" y="38.754"/><use x="516.07318" xlink:href="#W" y="38.754"/><use x="518.131148" xlink:href="#V" y="38.754"/><use x="532.85" xlink:href="#u" y="49.547"/><use x="536.724" xlink:href="#u" y="52.536"/><use x="540.597" xlink:href="#u" y="55.525"/><use x="553.88" xlink:href="#U" y="71.465"/><use x="558.308" xlink:href="#ac" y="72.959"/><use x="561.684" xlink:href="#W" y="72.959"/><use x="563.742" xlink:href="#ac" y="72.959"/><use x="567.616" xlink:href="#K" y="27.862"/><use x="567.616" xlink:href="#L" y="45.396"/><use x="567.616" xlink:href="#L" y="51.374"/><use x="567.616" xlink:href="#M" y="57.75"/><use x="501.298" xlink:href="#N" y="80.132"/><path d="m505.78125 80.132812h27.511719v-1.195312h-27.511719zm0 0"/><use x="533.294" xlink:href="#O" y="80.132"/><use x="537.77717" xlink:href="#P" y="80.132"/><path d="m542.261719 80.132812h27.511719v-1.195312h-27.511719zm0 0"/><use x="569.774" xlink:href="#Q" y="80.132"/><use x="531.719" xlink:href="#S" y="89.209"/><use x="539.634" xlink:href="#ab" y="90.704"/><use x="308.123" xlink:href="#ai" y="124.045"/><use x="317.532" xlink:href="#H" y="98.042"/><use x="317.532" xlink:href="#I" y="115.576"/><use x="317.532" xlink:href="#I" y="121.554"/><use x="317.532" xlink:href="#J" y="127.93"/><use x="327.561" xlink:href="#R" y="106.793"/><use x="332.348" xlink:href="#V" y="108.287"/><use x="336.05318" xlink:href="#W" y="108.287"/><use x="338.111148" xlink:href="#V" y="108.287"/><use x="344.529" xlink:href="#ah" y="106.793"/><use x="354.491" xlink:href="#T" y="106.793"/><use x="359.639" xlink:href="#V" y="108.287"/><use x="363.34418" xlink:href="#W" y="108.287"/><use x="365.402148" xlink:href="#V" y="108.287"/><path d="m-.001125.0016875h48.820312" fill="none" stroke="#000" stroke-miterlimit="10" stroke-width=".398" transform="matrix(1 0 0 -1 324.173 115.947)"/><path d="m-.00190625-.00059375v15.28515675" fill="none" stroke="#000" stroke-miterlimit="10" stroke-width=".398" transform="matrix(1 0 0 -1 324.373 131.433)"/><use x="327.561" xlink:href="#R" y="126.054"/><use x="332.348" xlink:href="#X" y="127.548"/><use x="336.05318" xlink:href="#W" y="127.548"/><use x="338.111148" xlink:href="#V" y="127.548"/><use x="344.528" xlink:href="#ah" y="126.054"/><use x="354.491" xlink:href="#T" y="126.054"/><use x="359.638" xlink:href="#X" y="127.548"/><use x="363.34318" xlink:href="#W" y="127.548"/><use x="365.401148" xlink:href="#V" y="127.548"/><path d="m-.00003125-.00059375v15.28515675" fill="none" stroke="#000" stroke-miterlimit="10" stroke-width=".398" transform="matrix(1 0 0 -1 372.793 131.433)"/><path d="m-.001125-.0008125h48.820312" fill="none" stroke="#000" stroke-miterlimit="10" stroke-width=".398" transform="matrix(1 0 0 -1 324.173 131.632)"/><use x="397.618" xlink:href="#u" y="119.08"/><use x="401.492" xlink:href="#u" y="122.069"/><use x="405.365" xlink:href="#u" y="125.058"/><use x="472.599" xlink:href="#K" y="98.042"/><use x="472.599" xlink:href="#L" y="115.576"/><use x="472.599" xlink:href="#L" y="121.554"/><use x="472.599" xlink:href="#M" y="127.93"/><use x="317.532" xlink:href="#N" y="150.96"/><path d="m322.015625 150.960938h71.886719v-1.195313h-71.886719zm0 0"/><use x="393.903" xlink:href="#O" y="150.96"/><use x="398.38617" xlink:href="#P" y="150.96"/><path d="m402.867188 150.960938h71.890624v-1.195313h-71.890624zm0 0"/><use x="474.757" xlink:href="#Q" y="150.96"/><use x="337.353" xlink:href="#Y" y="160.839"/><use x="340.235" xlink:href="#ad" y="160.839"/><use x="346.119" xlink:href="#ae" y="161.836"/><use x="349.264" xlink:href="#Z" y="160.839"/><use x="355.027" xlink:href="#ad" y="160.839"/><use x="360.911" xlink:href="#af" y="161.836"/><use x="364.056" xlink:href="#aa" y="160.839"/><use x="369.512" xlink:href="#aj" y="160.839"/><use x="371.351688" xlink:href="#ak" y="160.839"/><use x="376.886096" xlink:href="#ao" y="160.839"/><use x="380.319298" xlink:href="#ap" y="160.839"/><use x="384.028662" xlink:href="#aq" y="160.839"/><use x="387.89145" xlink:href="#ao" y="160.839"/><use x="391.324652" xlink:href="#ar" y="160.839"/><use x="393.961445" xlink:href="#as" y="160.839"/><use x="395.801134" xlink:href="#at" y="160.839"/><use x="401.938078" xlink:href="#ao" y="160.839"/><use x="405.37128" xlink:href="#au" y="160.839"/><use x="408.927918" xlink:href="#ap" y="160.839"/><use x="412.637282" xlink:href="#as" y="160.839"/><use x="414.47697" xlink:href="#av" y="160.839"/><use x="418.462497" xlink:href="#ap" y="160.839"/><use x="422.171861" xlink:href="#aw" y="160.839"/><use x="424.961381" xlink:href="#ao" y="160.839"/><use x="428.394583" xlink:href="#ax" y="160.839"/><use x="434.953442" xlink:href="#ap" y="160.839"/><use x="438.662806" xlink:href="#aF" y="160.839"/><use x="442.648333" xlink:href="#ax" y="160.839"/><use x="449.207192" xlink:href="#aw" y="160.839"/><use x="451.996712" xlink:href="#az" y="160.839"/><use x="455.982238" xlink:href="#ao" y="160.839"/><use x="332.613" xlink:href="#ar" y="170.121"/><use x="335.249794" xlink:href="#ao" y="170.121"/><use x="338.682996" xlink:href="#ak" y="170.121"/><use x="341.644071" xlink:href="#av" y="170.121"/><use x="345.629598" xlink:href="#as" y="170.121"/><use x="347.469286" xlink:href="#aw" y="170.121"/><use x="352.832138" xlink:href="#aj" y="170.121"/><use x="354.671827" xlink:href="#ak" y="170.121"/><use x="360.213208" xlink:href="#ak" y="170.121"/><use x="363.174284" xlink:href="#aw" y="170.121"/><use x="365.963804" xlink:href="#aB" y="170.121"/><use x="369.610404" xlink:href="#ar" y="170.121"/><use x="372.247198" xlink:href="#ao" y="170.121"/><use x="375.680399" xlink:href="#ax" y="170.121"/><use x="382.239258" xlink:href="#aj" y="170.121"/><use x="384.078947" xlink:href="#aF" y="170.121"/><use x="390.637806" xlink:href="#ap" y="170.121"/><use x="394.34717" xlink:href="#aF" y="170.121"/><use x="400.913002" xlink:href="#aj" y="170.121"/><use x="402.752691" xlink:href="#aF" y="170.121"/><use x="406.738218" xlink:href="#aw" y="170.121"/><use x="409.527738" xlink:href="#ao" y="170.121"/><use x="412.960939" xlink:href="#ar" y="170.121"/><use x="415.597733" xlink:href="#aC" y="170.121"/><use x="421.729098" xlink:href="#ao" y="170.121"/><use x="425.1623" xlink:href="#ax" y="170.121"/><use x="429.147826" xlink:href="#aj" y="170.121"/><use x="430.987515" xlink:href="#ap" y="170.121"/><use x="434.696879" xlink:href="#aw" y="170.121"/><use x="437.486399" xlink:href="#ao" y="170.121"/><use x="443.492933" xlink:href="#aC" y="170.121"/><use x="449.624298" xlink:href="#ap" y="170.121"/><use x="453.333662" xlink:href="#aw" y="170.121"/><use x="456.123182" xlink:href="#ar" y="170.121"/><use x="458.759976" xlink:href="#aj" y="170.121"/><use x="460.599664" xlink:href="#aD" y="170.121"/><use x="481.455" xlink:href="#ah" y="124.045"/><use x="491.417" xlink:href="#H" y="98.042"/><use x="491.417" xlink:href="#I" y="115.576"/><use x="491.417" xlink:href="#I" y="121.554"/><use x="491.417" xlink:href="#J" y="127.93"/><use x="498.059" xlink:href="#U" y="107.44"/><use x="502.487" xlink:href="#V" y="108.935"/><use x="506.19218" xlink:href="#W" y="108.935"/><use x="508.250148" xlink:href="#V" y="108.935"/><use x="522.969" xlink:href="#u" y="119.727"/><use x="526.843" xlink:href="#u" y="122.716"/><use x="530.716" xlink:href="#u" y="125.705"/><use x="543.999" xlink:href="#U" y="141.645"/><use x="548.427" xlink:href="#ac" y="143.139"/><use x="551.803" xlink:href="#W" y="143.139"/><use x="553.861" xlink:href="#ac" y="143.139"/><use x="557.735" xlink:href="#K" y="98.042"/><use x="557.735" xlink:href="#L" y="115.576"/><use x="557.735" xlink:href="#L" y="121.554"/><use x="557.735" xlink:href="#M" y="127.93"/><use x="491.417" xlink:href="#N" y="150.313"/><path d="m495.898438 150.3125h27.515624v-1.195312h-27.515624zm0 0"/><use x="523.414" xlink:href="#O" y="150.313"/><use x="527.89717" xlink:href="#P" y="150.313"/><path d="m532.378906 150.3125h27.515625v-1.195312h-27.515625zm0 0"/><use x="559.894" xlink:href="#Q" y="150.313"/><use x="521.838" xlink:href="#S" y="159.39"/><use x="529.753" xlink:href="#ab" y="160.884"/><use x="317.532" xlink:href="#N" y="175.302"/><path d="m322.015625 175.300781h114.457031v-1.195312h-114.457031zm0 0"/><use x="436.471" xlink:href="#O" y="175.302"/><use x="440.95417" xlink:href="#P" y="175.302"/><path d="m445.4375 175.300781h114.457031v-1.195312h-114.457031zm0 0"/><use x="559.894" xlink:href="#Q" y="175.302"/><use x="328.137" xlink:href="#Y" y="185.181"/><use x="331.019" xlink:href="#ad" y="185.181"/><use x="336.903" xlink:href="#ae" y="186.178"/><use x="340.047" xlink:href="#Z" y="185.181"/><use x="345.81" xlink:href="#ad" y="185.181"/><use x="351.695" xlink:href="#af" y="186.178"/><use x="354.839" xlink:href="#Z" y="185.181"/><use x="360.602" xlink:href="#ad" y="185.181"/><use x="366.487" xlink:href="#ag" y="186.178"/><use x="369.631" xlink:href="#aa" y="185.181"/><use x="375.088" xlink:href="#aj" y="185.181"/><use x="376.927688" xlink:href="#ak" y="185.181"/><use x="382.462096" xlink:href="#aw" y="185.181"/><use x="385.251616" xlink:href="#az" y="185.181"/><use x="389.237143" xlink:href="#ao" y="185.181"/><use x="392.670345" xlink:href="#aF" y="185.181"/><use x="399.236177" xlink:href="#ap" y="185.181"/><use x="402.945541" xlink:href="#as" y="185.181"/><use x="404.78523" xlink:href="#ak" y="185.181"/><use x="407.746305" xlink:href="#aB" y="185.181"/><use x="414.182425" xlink:href="#ao" y="185.181"/><use x="417.615627" xlink:href="#ap" y="185.181"/><use x="421.324991" xlink:href="#aq" y="185.181"/><use x="425.187779" xlink:href="#ao" y="185.181"/><use x="428.620981" xlink:href="#ar" y="185.181"/><use x="431.257775" xlink:href="#as" y="185.181"/><use x="433.097463" xlink:href="#at" y="185.181"/><use x="439.227433" xlink:href="#ao" y="185.181"/><use x="442.660635" xlink:href="#au" y="185.181"/><use x="446.217273" xlink:href="#ap" y="185.181"/><use x="449.926637" xlink:href="#as" y="185.181"/><use x="451.766326" xlink:href="#av" y="185.181"/><use x="455.751852" xlink:href="#ap" y="185.181"/><use x="459.461217" xlink:href="#aw" y="185.181"/><use x="462.250737" xlink:href="#ao" y="185.181"/><use x="465.683938" xlink:href="#ax" y="185.181"/><use x="472.249771" xlink:href="#ap" y="185.181"/><use x="475.959135" xlink:href="#aF" y="185.181"/><use x="479.944662" xlink:href="#ax" y="185.181"/><use x="486.503521" xlink:href="#aw" y="185.181"/><use x="489.293041" xlink:href="#az" y="185.181"/><use x="493.278568" xlink:href="#ao" y="185.181"/><use x="499.285102" xlink:href="#ar" y="185.181"/><use x="501.921895" xlink:href="#ao" y="185.181"/><use x="505.355097" xlink:href="#ak" y="185.181"/><use x="508.316173" xlink:href="#av" y="185.181"/><use x="512.301699" xlink:href="#as" y="185.181"/><use x="514.141388" xlink:href="#aw" y="185.181"/><use x="519.511214" xlink:href="#aj" y="185.181"/><use x="521.350902" xlink:href="#ak" y="185.181"/><use x="526.88531" xlink:href="#ar" y="185.181"/><use x="529.522104" xlink:href="#ao" y="185.181"/><use x="532.955305" xlink:href="#aw" y="185.181"/><use x="535.744825" xlink:href="#av" y="185.181"/><use x="539.730352" xlink:href="#ar" y="185.181"/><use x="542.367146" xlink:href="#aF" y="185.181"/><use x="546.352673" xlink:href="#ao" y="185.181"/><use x="549.785874" xlink:href="#ax" y="185.181"/></svg>